<?xml version="1.0" encoding="UTF-8"?>
<svg id="Layer_2" data-name="Layer 2" xmlns="http://www.w3.org/2000/svg" viewBox="0 0 426.89 492.22">
  <defs>
    <style>
      .cls-1 {
        fill: none;
        stroke: #000;
        stroke-linecap: round;
        stroke-linejoin: round;
        stroke-width: 7px;
      }
    </style>
  </defs>
  <g id="Layer_1-2" data-name="Layer 1">
    <g>
      <g>
        <polygon class="cls-1" points="215.31 164.96 145.68 204.04 212.48 244.56 281.81 204.76 215.31 164.96"/>
        <polygon class="cls-1" points="213.75 326.42 213.75 244.56 281.81 204.76 281.81 287.29 213.75 326.42"/>
        <polygon class="cls-1" points="145.68 204.04 145.68 285.93 213.75 326.42 213.75 244.56 145.68 204.04"/>
      </g>
      <g>
        <polygon class="cls-1" points="214.65 3.5 174.53 26.01 213.02 49.36 252.96 26.43 214.65 3.5"/>
        <polygon class="cls-1" points="213.75 96.52 213.75 49.36 252.96 26.43 252.96 73.97 213.75 96.52"/>
        <polygon class="cls-1" points="174.53 26.01 174.53 73.19 213.75 96.52 213.75 49.36 174.53 26.01"/>
      </g>
      <g>
        <polygon class="cls-1" points="385.08 100.81 344.96 123.33 383.45 146.67 423.39 123.74 385.08 100.81"/>
        <polygon class="cls-1" points="384.18 193.83 384.18 146.67 423.39 123.74 423.39 171.29 384.18 193.83"/>
        <polygon class="cls-1" points="344.96 123.33 344.96 170.5 384.18 193.83 384.18 146.67 344.96 123.33"/>
      </g>
      <g>
        <polygon class="cls-1" points="43.62 100.81 3.5 123.33 41.99 146.67 81.93 123.74 43.62 100.81"/>
        <polygon class="cls-1" points="42.71 193.83 42.71 146.67 81.93 123.74 81.93 171.29 42.71 193.83"/>
        <polygon class="cls-1" points="3.5 123.33 3.5 170.5 42.71 193.83 42.71 146.67 3.5 123.33"/>
      </g>
      <g>
        <polygon class="cls-1" points="214.65 395.7 174.53 418.21 213.02 441.56 252.96 418.63 214.65 395.7"/>
        <polygon class="cls-1" points="213.75 488.72 213.75 441.56 252.96 418.63 252.96 466.18 213.75 488.72"/>
        <polygon class="cls-1" points="174.53 418.21 174.53 465.39 213.75 488.72 213.75 441.56 174.53 418.21"/>
      </g>
      <g>
        <polygon class="cls-1" points="385.08 296.12 344.96 318.64 383.45 341.98 423.39 319.05 385.08 296.12"/>
        <polygon class="cls-1" points="384.18 389.14 384.18 341.98 423.39 319.05 423.39 366.6 384.18 389.14"/>
        <polygon class="cls-1" points="344.96 318.64 344.96 365.81 384.18 389.14 384.18 341.98 344.96 318.64"/>
      </g>
      <g>
        <polygon class="cls-1" points="43.62 296.12 3.5 318.64 41.99 341.98 81.93 319.05 43.62 296.12"/>
        <polygon class="cls-1" points="42.71 389.14 42.71 341.98 81.93 319.05 81.93 366.6 42.71 389.14"/>
        <polygon class="cls-1" points="3.5 318.64 3.5 365.81 42.71 389.14 42.71 341.98 3.5 318.64"/>
      </g>
      <line class="cls-1" x1="328.44" y1="179.73" x2="301.96" y2="193.83"/>
      <polyline class="cls-1" points="127.86 195.72 102.14 179.73 114.15 176.69"/>
      <line class="cls-1" x1="127.86" y1="296.12" x2="100.09" y2="311.14"/>
      <polyline class="cls-1" points="328.44 311.14 299.46 296.12 300.96 307.18"/>
      <polyline class="cls-1" points="309.45 372.1 328.44 377.6 273.47 410.08"/>
      <line class="cls-1" x1="325.44" y1="395.7" x2="328.44" y2="377.6"/>
      <polyline class="cls-1" points="156.06 391.09 156.06 410.08 102.14 377.6"/>
      <line class="cls-1" x1="139.07" y1="416.07" x2="156.06" y2="410.08"/>
      <line class="cls-1" x1="313.95" y1="290.65" x2="299.46" y2="293.7"/>
      <polyline class="cls-1" points="98.74 299.62 98.74 311.14 109.08 316.87"/>
      <line class="cls-1" x1="102.14" y1="179.73" x2="102.14" y2="192.36"/>
      <polyline class="cls-1" points="139.01 76.62 153.57 82.63 102.14 111.81"/>
      <line class="cls-1" x1="151.96" y1="98.01" x2="153.57" y2="82.63"/>
      <polyline class="cls-1" points="320.98 94.21 325.44 111.81 273.47 82.63"/>
      <line class="cls-1" x1="308.24" y1="116.73" x2="325.44" y2="111.81"/>
      <polyline class="cls-1" points="301.96 179.73 300.75 193.83 313.26 199.24"/>
    </g>
  </g>
</svg>