<?xml version="1.0" encoding="UTF-8"?>
<svg id="Layer_2" data-name="Layer 2" xmlns="http://www.w3.org/2000/svg" viewBox="0 0 471.96 542.24">
  <defs>
    <style>
      .cls-1 {
        fill: none;
        stroke: #000;
        stroke-linecap: round;
        stroke-linejoin: round;
        stroke-width: 7px;
      }
    </style>
  </defs>
  <g id="Layer_1-2" data-name="Layer 1">
    <g>
      <path class="cls-1" d="M3.72,82.57S138.71,130.85,236,3.5c0,0,81.2,118.95,232.34,79.77,0,0,13.23,359.65-232.31,455.47,0,0-240.85-49.05-232.31-456.17Z"/>
      <path class="cls-1" d="M140.82,388.58h199.36c6.53,0,11.88-5.35,11.88-11.88v-158.95c0-6.53-5.35-11.88-11.88-11.88H120.87c-6.53,0-11.88,5.35-11.88,11.88v139c0,17.5,14.32,31.82,31.82,31.82Z"/>
      <path class="cls-1" d="M155.63,150.6v163.59c0,5.62-4.61,10.06-10.22,10.05-.04,0-.07,0-.11,0-14.27,0-27.16,5.94-36.31,15.48v-161.75c0-16.64,13.61-30.25,30.25-30.25h13.51c1.58,0,2.88,1.3,2.88,2.88Z"/>
      <line class="cls-1" x1="190.13" y1="368.43" x2="190.13" y2="250.77"/>
      <polyline class="cls-1" points="299.42 279.09 299.42 345.3 209.28 345.3"/>
      <line class="cls-1" x1="190.13" y1="304.61" x2="299.42" y2="304.61"/>
      <line class="cls-1" x1="244.78" y1="304.61" x2="244.78" y2="343.7"/>
      <line class="cls-1" x1="171.88" y1="250.77" x2="251.33" y2="250.77"/>
      <polygon class="cls-1" points="251.33 249.51 254.35 221.72 279.98 246.24 251.33 249.51"/>
      <polyline class="cls-1" points="254.35 221.72 332.72 145.18 355.58 165.99 279.98 246.24"/>
      <line class="cls-1" x1="306.53" y1="170.76" x2="329.88" y2="193.27"/>
      <line class="cls-1" x1="319.84" y1="157.76" x2="342.38" y2="179.99"/>
    </g>
  </g>
</svg>