<?xml version="1.0" encoding="UTF-8"?>
<svg id="Layer_2" data-name="Layer 2" xmlns="http://www.w3.org/2000/svg" viewBox="0 0 499.31 492.25">
  <defs>
    <style>
      .cls-1 {
        fill: none;
        stroke: #000;
        stroke-linecap: round;
        stroke-linejoin: round;
        stroke-width: 7px;
      }
    </style>
  </defs>
  <g id="Layer_1-2" data-name="Layer 1">
    <g>
      <line class="cls-1" x1="38.11" y1="488.75" x2="456.25" y2="488.75"/>
      <path class="cls-1" d="M151.64,455.07h193.06c13.44,0,26.16-9.95,33.21-21.39,7.13-11.59,8.73-25.9,7.12-39.41-.61-5.11-1.66-10.22-3.72-14.94-5.06-11.61-16.47-20.21-29.03-21.89s-25.82,3.63-33.76,13.5c-7.07,8.8-9.44,22.4-2.41,31.23,1.74,2.18,3.93,3.96,6.26,5.49,4.85,3.2,10.58,5.46,16.37,4.99,5.79-.48,11.54-4.18,13.18-9.76,1.64-5.57-2.05-12.48-7.82-13.16"/>
      <path class="cls-1" d="M412.01,318.79c13.91,8.44,31.36,10.82,47.02,6.41,15.66-4.41,29.31-15.53,36.78-29.98-10.65-6.13-21.94-11.75-34.15-13.22-22.41-2.7-45.83,10.55-55.07,31.15,2.87,2.16,2.34,3.78,5.42,5.64Z"/>
      <line class="cls-1" x1="345.23" y1="230.75" x2="445.65" y2="230.75"/>
      <path class="cls-1" d="M438.6,178.85c-15.15,3.82-31.7,3.54-45.89-3.01-14.19-6.54-25.6-19.89-27.73-35.37,4.72-1.85,8.6-2.09,13.62-1.41,12.7,1.71,25.55,3.94,37.04,9.61,11.49,5.68,19.42,17.86,22.95,30.17Z"/>
      <line class="cls-1" x1="377.05" y1="79.76" x2="494.06" y2="79.76"/>
      <line class="cls-1" x1="360.87" y1="28.53" x2="440.15" y2="28.53"/>
      <path class="cls-1" d="M112.35,488.51c-2.9-75.78-5.75-152.2,6.98-226.96,7.78-45.69,20.13-92.08,37.09-135.23,6.2-15.76,14.1-32.18,28.75-40.7"/>
      <path class="cls-1" d="M192.21,161.67c-21.99,10.58-45,22.01-58.78,42.16"/>
      <path class="cls-1" d="M192.27,262.77c-35.77,20.08-64.78,51.96-81.4,89.46"/>
      <path class="cls-1" d="M85.4,226.63c6.45,21.59,17.14,41.9,31.29,59.42"/>
      <path class="cls-1" d="M113.38,363.41c-20.38,1.25-40.99-10.26-50.62-28.27-.9-1.69-1.77-3.5-3.31-4.65-1.44-1.08-3.27-1.43-5.01-1.87-13.02-3.29-24.14-13.31-28.78-25.91-4.64-12.6-2.67-27.44,5.1-38.39-15.84-12.73-19.98-37.8-9.08-54.95-15.52-9.32-21.96-30.48-15.97-47.56s22.83-29.26,40.78-31.58c3.42-20.24,25.98-35.01,45.9-30.03-7.24-10.11-3.78-25.37,5.58-33.57s22.95-10.14,35.19-7.91c-1.57-6.1-2.59-12.09-1.61-18.31.98-6.22,4.21-12.31,9.58-15.58,1.78-1.09,3.76-1.84,5.77-2.41,11.02-3.13,23.51-.51,32.34,6.8,4.32-8.85,14.06-18.9,22.98-23.08,4.85-2.27,10.52-3.63,15.53-1.74,2.19.83,4.13,2.23,5.9,3.76,4.33,3.73,7.91,8.32,10.46,13.43,19.52-4.54,41.5,3.46,53.19,19.74,8.68-.33,16.25,4.66,23.85,8.86,10.86,6,21.79,13.49,26.85,24.82,6.06,13.57,1.98,30.25-7.66,41.56-9.64,11.31-23.95,17.8-38.51,20.79,10.47.76,16.65,8.29,22.19,17.21,5.54,8.91,7.51,19.69,7.29,30.18-.1,4.98-.7,10.04-2.81,14.55-1.32,2.83-3.21,5.37-5.3,7.69-4.87,5.41-10.93,9.73-17.62,12.59,4.88,2.66,5.02,10.76,3.62,16.14-1.4,5.38-5.07,9.84-8.64,14.1,4.47,9.54,7.9,20.97,6.95,31.46-.41,4.47-1.82,8.8-3.48,12.97-2.44,6.1-5.5,12.04-9.88,16.94-4.38,4.89-10.21,8.69-16.69,9.75-1.69.28-5.92,2.04-7.63,2.27-5.16,11.67-14.38,24.6-25.25,31.29-4.02,2.47-8.56,4.02-13.18,5.03-19.68,4.27-41.3-1.81-55.87-15.71-7.14,6-16.08,12.82-24.78,16.18-8.7,3.36-18.06,2.86-27.37,3.43Z"/>
    </g>
  </g>
</svg>