<?xml version="1.0" encoding="UTF-8"?>
<svg id="Layer_2" data-name="Layer 2" xmlns="http://www.w3.org/2000/svg" viewBox="0 0 496.37 481.62">
  <defs>
    <style>
      .cls-1 {
        fill: none;
        stroke: #000;
        stroke-linecap: round;
        stroke-linejoin: round;
        stroke-width: 7px;
      }
    </style>
  </defs>
  <g id="Layer_1-2" data-name="Layer 1">
    <g>
      <path class="cls-1" d="M256.21,445.01V43.58c.46-6.54-3.6-13.97-7.88-18.93-13.52-15.68-35.4-23.69-55.85-20.44-20.45,3.25-38.76,17.65-46.75,36.75"/>
      <path class="cls-1" d="M177.41,99.1c-.56-8.86-2.52-17.63-5.77-25.89-2.19-5.58-5.02-10.98-9.02-15.44-11.09-12.36-29.67-15.51-45.99-12.45-16.17,3.03-31.46,11.65-41.39,24.75-9.93,13.11-14.08,30.76-9.77,46.63,2.12,7.79,6.38,15.26,13.07,19.78s16,5.57,22.87,1.33"/>
      <path class="cls-1" d="M66.41,124.53c-18.33,1.84-34.01,16.12-40.48,33.37-6.47,17.25-4.68,36.81,1.8,54.05"/>
      <path class="cls-1" d="M80.24,226.78c-3.37-6.22-9.85-10.31-16.66-12.25-41.23-11.75-70.05,27.06-56.84,65.22,6.02,17.38,22.15,31.37,40.48,32.89"/>
      <path class="cls-1" d="M134.1,380.83c-4.54,9.31-14.52,17.83-24.32,21.19-10.68,3.67-21.99,5.96-33.24,5.12s-22.49-5.02-30.56-12.93c-5.77-5.65-9.71-12.97-12.27-20.62-6.98-20.88-2.78-46.42,14.12-60.53"/>
      <path class="cls-1" d="M88.01,406.79c-.7,15.6,2.3,32.42,11.27,45.5,14.92,21.75,46.83,24.58,68.9,12.26,11.6-6.48,20.61-18.18,22.09-31.39.9-8.04-.92-16.11-2.72-24"/>
      <path class="cls-1" d="M256.21,445.01c-8.03,14.14-20.56,26.02-36.04,30.99-12.99,4.17-36.01,2.86-44.27-10.4"/>
      <path class="cls-1" d="M112.75,193.02c8.4-6.71,20.04-8.07,30.65-6.37,9.72,1.55,19.95,6.33,23.55,15.48"/>
      <path class="cls-1" d="M205.3,160.77c8.82-8.63,21.74-12.89,33.96-11.19,5.48.76,11.03,2.81,14.67,6.98"/>
      <path class="cls-1" d="M207.79,248.05c11.14-8.57,27.26-10.09,39.81-3.75,2.09,1.06,4.16,2.38,5.36,4.4"/>
      <path class="cls-1" d="M161.09,282.42c-.48,9.31,3.34,18.75,10.16,25.1,6.81,6.36,16.5,9.51,25.75,8.39"/>
      <path class="cls-1" d="M97.64,283.21c-.97,11.19,2.79,22.71,10.17,31.18,3.35,3.84,7.7,7.19,12.76,7.71"/>
      <g>
        <polyline class="cls-1" points="256.25 111.06 299.11 111.06 312.09 89.78"/>
        <polyline class="cls-1" points="256.25 163.59 363.44 163.59 391.96 128.74 391.96 97.05"/>
        <polyline class="cls-1" points="256.21 207.96 370.83 207.96 414.67 157.26 442.13 157.26"/>
        <circle class="cls-1" cx="325.26" cy="68.45" r="23.91"/>
        <circle class="cls-1" cx="391.96" cy="70.95" r="23.91"/>
        <circle class="cls-1" cx="468.96" cy="157.26" r="23.91"/>
      </g>
      <g>
        <polyline class="cls-1" points="256.25 372.78 299.11 372.78 312.09 394.07"/>
        <polyline class="cls-1" points="256.25 320.25 363.44 320.25 391.96 355.11 391.96 386.8"/>
        <polyline class="cls-1" points="256.21 275.89 370.83 275.89 414.67 326.59 442.13 326.59"/>
        <circle class="cls-1" cx="325.26" cy="415.39" r="23.91"/>
        <circle class="cls-1" cx="391.96" cy="412.9" r="23.91"/>
        <circle class="cls-1" cx="468.96" cy="326.59" r="23.91"/>
      </g>
    </g>
  </g>
</svg>