<?xml version="1.0" encoding="UTF-8"?>
<svg id="Layer_2" data-name="Layer 2" xmlns="http://www.w3.org/2000/svg" viewBox="0 0 428.39 509.91">
  <defs>
    <style>
      .cls-1 {
        fill: none;
        stroke: #000;
        stroke-linecap: round;
        stroke-linejoin: round;
        stroke-width: 7px;
      }
    </style>
  </defs>
  <g id="Layer_1-2" data-name="Layer 1">
    <g>
      <path class="cls-1" d="M119.33,53.89c.92-.12,3.84-.82,5.48-1.2,21.55-5.09,36.91-12.12,51.02-19.9,23.29-12.84,34.93-19.25,39.81-21.03,9.87-3.58,30.28-10.73,55.62-7.38,17.55,2.32,31.91,8.94,43.79,14.42,8.61,3.97,13.86,7.11,18.59,9.73,13.21,7.32,35.46,16.77,63.89,24.36"/>
      <path class="cls-1" d="M395.71,50.53l.6,128.62s1.02,96.23-139.08,157.28"/>
      <path class="cls-1" d="M121.48,51.46l-.6,128.62s-1.81,95.29,138.29,156.35"/>
      <path class="cls-1" d="M132.72,65.45c.83-.1,3.64-.87,5.14-1.33,19.11-5.85,33.31-10.94,46.05-17.96,21.01-11.58,31.52-17.38,35.93-18.97,8.9-3.23,27.32-9.68,50.19-6.66,15.84,2.09,28.8,8.07,39.52,13.02,7.77,3.59,12.51,6.42,16.78,8.78,11.92,6.6,32.18,15.36,57.83,22.21"/>
      <path class="cls-1" d="M382.34,62.18l.54,116.08s.7,86.84-125.73,141.94"/>
      <path class="cls-1" d="M134.85,63.02l-.54,116.08s-1.63,86,124.8,141.1"/>
      <path class="cls-1" d="M72.1,487.75c3.17-2.64,8.66-6.58,16.3-9,10.62-3.36,19.83-2.02,24.58-1.22,29.35,4.97,54.8,17.66,87.99,24.75,27.73,5.93,42.43,4.01,48.36,3.02,13.75-2.3,23.81-6.89,33.59-11.75,74.29-36.97,117.55-82.49,136.02-88.33.95-.3,3.9-1.15,5.25-3.72,3.61-6.87-7.83-19.61-10.19-21.94-20.33-19.95-93.93,19.56-106.01,26.15,1.64,2.08,5.24,7.19,6,14.68.98,9.55-3.3,16.56-4.65,18.59-34.72-.71-69.45-1.43-104.17-2.14"/>
      <rect class="cls-1" x="3.5" y="355.39" width="69.58" height="138.53" rx="14.08" ry="14.08"/>
      <path class="cls-1" d="M306.45,403.93s-9.67-18.53-26.78-21.95-50.78-3.67-50.78-3.67l-26.79-.79s-13.6-.3-41.11-15.2c0,0-39.88-20.46-86.49,5.46"/>
      <g>
        <path class="cls-1" d="M329.34,181.27v-27.51s-12.05-4.7-13.72-11.23c-1.66-6.53-9.98-17.22-9.98-17.22l11.85-19.84s-21.08-10.33-34.09,2.14c0,0-46.42-18.69-78.18,22.35-31.77,41.04,6.96,69.56,6.96,69.56v21.1h21.1s4.49-8.55,10-9.21c5.51-.67,27.86-.67,27.86-.67,0,0,6.51.33,11.84,10.84h18.52l-.33-22.02,10.34-14.01,17.84-4.27Z"/>
        <path class="cls-1" d="M234.6,125.05s25.3-16.09,49.04,0"/>
        <path class="cls-1" d="M187.52,118.47s-.34,14.45,12.77,17.36"/>
        <circle class="cls-1" cx="297.32" cy="140.02" r="4.06"/>
      </g>
    </g>
  </g>
</svg>