<?xml version="1.0" encoding="UTF-8"?>
<svg id="Layer_2" data-name="Layer 2" xmlns="http://www.w3.org/2000/svg" viewBox="0 0 499.77 501.07">
  <defs>
    <style>
      .cls-1 {
        fill: none;
        stroke: #000;
        stroke-linecap: round;
        stroke-linejoin: round;
        stroke-width: 7px;
      }
    </style>
  </defs>
  <g id="Layer_1-2" data-name="Layer 1">
    <g>
      <g>
        <path class="cls-1" d="M125.99,103.97H14.14c-5.88,0-10.64-4.76-10.64-10.64V14.14c0-5.88,4.76-10.64,10.64-10.64h111.85c5.88,0,10.64,4.76,10.64,10.64v79.18c0,5.88-4.76,10.64-10.64,10.64Z"/>
        <line class="cls-1" x1="4.82" y1="75.95" x2="135.29" y2="75.95"/>
        <line class="cls-1" x1="53.67" y1="103.97" x2="53.67" y2="123.51"/>
        <line class="cls-1" x1="85.65" y1="103.97" x2="85.65" y2="123.51"/>
        <rect class="cls-1" x="27.29" y="121.45" width="85.56" height="9.45" rx="4.2" ry="4.2" transform="translate(140.13 252.36) rotate(180)"/>
      </g>
      <g>
        <path class="cls-1" d="M484.98,103.97h-111.85c-5.88,0-10.64-4.76-10.64-10.64V14.14c0-5.88,4.76-10.64,10.64-10.64h111.85c5.88,0,10.64,4.76,10.64,10.64v79.18c0,5.88-4.76,10.64-10.64,10.64Z"/>
        <line class="cls-1" x1="363.81" y1="75.95" x2="494.28" y2="75.95"/>
        <line class="cls-1" x1="412.66" y1="103.97" x2="412.66" y2="123.51"/>
        <line class="cls-1" x1="444.65" y1="103.97" x2="444.65" y2="123.51"/>
        <rect class="cls-1" x="386.28" y="121.45" width="85.56" height="9.45" rx="4.2" ry="4.2" transform="translate(858.11 252.36) rotate(180)"/>
      </g>
      <g>
        <path class="cls-1" d="M485.63,470.64h-111.85c-5.88,0-10.64-4.76-10.64-10.64v-79.18c0-5.88,4.76-10.64,10.64-10.64h111.85c5.88,0,10.64,4.76,10.64,10.64v79.18c0,5.88-4.76,10.64-10.64,10.64Z"/>
        <line class="cls-1" x1="364.46" y1="442.62" x2="494.93" y2="442.62"/>
        <line class="cls-1" x1="413.31" y1="470.64" x2="413.31" y2="490.18"/>
        <line class="cls-1" x1="445.3" y1="470.64" x2="445.3" y2="490.18"/>
        <rect class="cls-1" x="386.93" y="488.12" width="85.56" height="9.45" rx="4.2" ry="4.2" transform="translate(859.41 985.7) rotate(180)"/>
      </g>
      <g>
        <path class="cls-1" d="M126.4,469.93H14.55c-5.88,0-10.64-4.76-10.64-10.64v-79.18c0-5.88,4.76-10.64,10.64-10.64h111.85c5.88,0,10.64,4.76,10.64,10.64v79.18c0,5.88-4.76,10.64-10.64,10.64Z"/>
        <line class="cls-1" x1="5.23" y1="441.92" x2="135.69" y2="441.92"/>
        <line class="cls-1" x1="54.07" y1="469.93" x2="54.07" y2="489.48"/>
        <line class="cls-1" x1="86.06" y1="469.93" x2="86.06" y2="489.48"/>
        <rect class="cls-1" x="27.69" y="487.42" width="85.56" height="9.45" rx="4.2" ry="4.2" transform="translate(140.95 984.29) rotate(-180)"/>
      </g>
      <g>
        <polyline class="cls-1" points="70.47 368.14 70.47 338.89 202.89 338.89 202.89 283.59"/>
        <polyline class="cls-1" points="136.63 53.73 202.89 53.73 202.89 130.9"/>
      </g>
      <g>
        <polyline class="cls-1" points="429.35 368.14 429.35 338.89 296.93 338.89 296.93 283.16"/>
        <polyline class="cls-1" points="363.19 53.73 296.93 53.73 296.93 130.9"/>
      </g>
      <path class="cls-1" d="M162.1,197.99s.48-2.53.52-2.87c5.28-43.32,42.19-76.87,86.94-76.87s82.09,33.01,86.83,76.04c.05.43.1.84.16,1.26"/>
      <path class="cls-1" d="M336.71,193.03c2.87-.59,5.84-.9,8.88-.9,24.34,0,44.08,19.73,44.08,44.08,0,24.34-19.73,44.08-44.08,44.08l-193.04,2.35c-24.34,0-44.08-19.73-44.08-44.08s19.73-44.08,44.08-44.08c3.04,0,6.01.31,8.88.9"/>
    </g>
  </g>
</svg>