<?xml version="1.0" encoding="UTF-8"?>
<svg id="Layer_2" data-name="Layer 2" xmlns="http://www.w3.org/2000/svg" viewBox="0 0 503.81 507">
  <defs>
    <style>
      .cls-1 {
        fill: none;
        stroke: #000;
        stroke-linecap: round;
        stroke-linejoin: round;
        stroke-width: 7px;
      }
    </style>
  </defs>
  <g id="Layer_1-2" data-name="Layer 1">
    <g>
      <circle class="cls-1" cx="251.89" cy="253.9" r="132.88"/>
      <circle class="cls-1" cx="424.48" cy="74.13" r="70.63"/>
      <circle class="cls-1" cx="251.89" cy="47.7" r="36.13"/>
      <circle class="cls-1" cx="43.19" cy="255.52" r="36.13"/>
      <circle class="cls-1" cx="79.32" cy="61.56" r="28.97"/>
      <circle class="cls-1" cx="460.61" cy="255.52" r="36.13"/>
      <circle class="cls-1" cx="251.89" cy="464.22" r="36.13"/>
      <circle class="cls-1" cx="79.32" cy="74.13" r="70.63"/>
      <circle class="cls-1" cx="74.13" cy="432.87" r="70.63"/>
      <circle class="cls-1" cx="429.68" cy="432.87" r="70.63"/>
      <line class="cls-1" x1="251.89" y1="83.83" x2="251.89" y2="118.55"/>
      <line class="cls-1" x1="124.98" y1="128.02" x2="156.7" y2="161.19"/>
      <line class="cls-1" x1="79.32" y1="255.52" x2="119" y2="255.52"/>
      <line class="cls-1" x1="377.68" y1="128.02" x2="347.07" y2="161.19"/>
      <line class="cls-1" x1="421.47" y1="255.52" x2="386.9" y2="255.52"/>
      <line class="cls-1" x1="251.89" y1="389.62" x2="251.89" y2="425.46"/>
      <path class="cls-1" d="M37.87,130.07c0-17.65,14.31-37.26,31.95-37.26h18.99c17.65,0,31.95,19.62,31.95,37.26"/>
      <g>
        <circle class="cls-1" cx="74.13" cy="421.46" r="28.97"/>
        <path class="cls-1" d="M32.68,489.97c0-17.65,14.31-37.26,31.95-37.26h18.99c17.65,0,31.95,19.62,31.95,37.26"/>
      </g>
      <g>
        <circle class="cls-1" cx="429.68" cy="421.46" r="28.97"/>
        <path class="cls-1" d="M388.23,489.97c0-17.65,14.31-37.26,31.95-37.26h18.99c17.65,0,31.95,19.62,31.95,37.26"/>
      </g>
      <g>
        <circle class="cls-1" cx="424.48" cy="60.98" r="28.97"/>
        <path class="cls-1" d="M383.03,129.5c0-17.65,14.31-37.26,31.95-37.26h18.99c17.65,0,31.95,19.62,31.95,37.26"/>
      </g>
      <line class="cls-1" x1="158.99" y1="348.91" x2="124.1" y2="382.94"/>
      <line class="cls-1" x1="345.13" y1="348.58" x2="379.14" y2="383.52"/>
      <path class="cls-1" d="M312.9,231.99c0,39.11-26.93,70.81-60.15,70.81s-60.15-31.7-60.15-70.81c0-20.5,7.4-38.97,19.24-51.9,2.9-3.16,6.06-6,9.44-8.45,9.16-6.63,19.94-10.46,31.48-10.46,33.22,0,60.15,31.7,60.15,70.81Z"/>
      <path class="cls-1" d="M195.09,239.02s20.72-6.1,28.96-19.8c0,0,26.69,12.56,54.22,0,0,0,17.32,18.95,31.23,19.8"/>
      <path class="cls-1" d="M231.04,299.89s-6.49,13.9-25.03,18.54c-18.54,4.63-35.92,19-31.05,43.34"/>
      <path class="cls-1" d="M276.46,300.42s6.38,13.67,24.6,18.22c18.22,4.56,35.3,18.68,30.52,42.59"/>
      <polyline class="cls-1" points="213.89 315.64 251.89 337.62 289.72 315.64"/>
    </g>
  </g>
</svg>