<?xml version="1.0" encoding="UTF-8"?>
<svg id="Layer_2" data-name="Layer 2" xmlns="http://www.w3.org/2000/svg" viewBox="0 0 497.26 494.65">
  <defs>
    <style>
      .cls-1 {
        fill: none;
        stroke: #000;
        stroke-linecap: round;
        stroke-linejoin: round;
        stroke-width: 7px;
      }
    </style>
  </defs>
  <g id="Layer_1-2" data-name="Layer 1">
    <g>
      <g>
        <path class="cls-1" d="M65.66,78.02s27.85,9.96,47.93-16.32c0,0,16.75,24.55,47.94,16.46,0,0,2.73,74.21-47.94,93.99,0,0-49.7-10.12-47.94-94.13Z"/>
        <polyline class="cls-1" points="92.4 114.99 105.52 131.12 134.78 107.07"/>
      </g>
      <path class="cls-1" d="M170.4,199.44c27.84-19.2,46.08-51.32,46.08-87.7,0-58.81-47.68-106.49-106.49-106.49S3.5,52.93,3.5,111.74s47.68,106.49,106.49,106.49c5.06,0,10.03-.35,14.9-1.05"/>
      <polyline class="cls-1" points="124.89 217.18 161.56 255.19 170.4 199.44"/>
      <polyline class="cls-1" points="186.38 491.15 122.45 491.15 122.45 451.46 389.57 451.46 389.57 491.15 213.7 491.15"/>
      <line class="cls-1" x1="201.15" y1="451.46" x2="201.15" y2="378.59"/>
      <path class="cls-1" d="M339.85,375.13v-35.58h-169.45v36.47h181.78s35.32,2.4,34.51-36.47,0-50.24,0-50.24"/>
      <polyline class="cls-1" points="319.41 217.04 302.83 260.44 220.47 227.32 278.55 68.45 363.61 101.39 352.01 131.74"/>
      <polyline class="cls-1" points="301.63 77.39 321.37 28.95 358.07 42.72 340.97 92.63"/>
      <polyline class="cls-1" points="232.43 234.76 223.34 260.44 278.55 282.15 292.04 256.1"/>
      <circle class="cls-1" cx="329.85" cy="172.15" r="46.08"/>
      <circle class="cls-1" cx="329.85" cy="172.15" r="18.19"/>
      <path class="cls-1" d="M373.51,186.87s11.12,3.62,13.19,19.83,0,56.5,0,56.5"/>
      <path class="cls-1" d="M372.19,153.96l28.87,1.45c10.04.5,18.42,7.82,20.28,17.69l39.61,210.29c6.66,35.35-20.46,68.05-56.43,68.05h-14.94"/>
      <path class="cls-1" d="M451.84,97.95v.04c0,6.83-5.54,12.37-12.37,12.37s-12.37-5.54-12.37-12.37"/>
      <line class="cls-1" x1="393.16" y1="59.39" x2="386.68" y2="67"/>
      <line class="cls-1" x1="381.98" y1="43.51" x2="393.16" y2="43.51"/>
      <line class="cls-1" x1="383.52" y1="19.26" x2="391.62" y2="26.71"/>
      <line class="cls-1" x1="484.52" y1="58.58" x2="493.76" y2="67"/>
      <line class="cls-1" x1="485.66" y1="43.51" x2="493.76" y2="43.51"/>
      <line class="cls-1" x1="492.3" y1="19.26" x2="485.66" y2="26.71"/>
      <path class="cls-1" d="M405.92,26.67c5.22-13.56,18.37-23.17,33.76-23.17,19.97,0,36.16,16.19,36.16,36.17,0,9.82-3.92,18.74-10.28,25.25-4.46,4.57-7.12,10.59-7.12,16.97v8.79c0,4.02-3.29,7.31-7.31,7.31h-25.06c-4.03,0-7.32-3.29-7.32-7.31v-11.08c0-5.93-2.29-11.58-6.21-16.02-5.62-6.38-9.03-14.74-9.03-23.9,0-4.58.85-8.97,2.41-13Z"/>
      <line class="cls-1" x1="418.75" y1="83.29" x2="458.44" y2="83.29"/>
      <path class="cls-1" d="M437.58,17.53s21.78-1.55,25.23,23.44"/>
    </g>
  </g>
</svg>