<?xml version="1.0" encoding="UTF-8"?>
<svg id="Layer_2" data-name="Layer 2" xmlns="http://www.w3.org/2000/svg" viewBox="0 0 483.39 507.52">
  <defs>
    <style>
      .cls-1, .cls-2 {
        fill: none;
        stroke: #000;
        stroke-linecap: round;
        stroke-linejoin: round;
        stroke-width: 7px;
      }

      .cls-2 {
        fill-rule: evenodd;
      }
    </style>
  </defs>
  <g id="Layer_1-2" data-name="Layer 1">
    <g>
      <path class="cls-1" d="M164.68,465.22C70.92,433.34,3.5,344.86,3.5,240.7,3.5,109.7,110.14,3.5,241.7,3.5s238.2,106.2,238.2,237.2c0,100.14-62.32,185.78-150.44,220.58"/>
      <path class="cls-1" d="M273.11,5.55s56.55,28.67,48.41,55.68c-8.14,27.01-48.82,63.47-10.85,78.32,37.97,14.85,73.23-29.71,73.23-33.76s15.58-42.77,15.58-42.77"/>
      <g>
        <rect class="cls-1" x="183.72" y="212.63" width="122.76" height="31.36" rx="15.68" ry="15.68"/>
        <rect class="cls-1" x="183.24" y="397.98" width="122.76" height="27.32" rx="13.66" ry="13.66"/>
        <rect class="cls-1" x="133.73" y="476.7" width="220.77" height="27.32" rx="13.66" ry="13.66"/>
        <path class="cls-2" d="M291.59,246.31v.69c0,9.95-8.1,18.01-18.08,18.01h-57.87c-9.99,0-18.08-8.06-18.08-18.01v-.69"/>
        <path class="cls-2" d="M162.22,474.35v-1.79c0-26.02,14.51-47.12,32.41-47.12h103.72c17.9,0,32.41,21.1,32.41,47.12v1.79"/>
        <path class="cls-2" d="M215.63,265.01s10.93,58.04-18.08,132.97"/>
        <path class="cls-2" d="M273.5,265.09s-10.93,58.04,18.08,132.97"/>
        <line class="cls-1" x1="219.61" y1="295.57" x2="270.77" y2="295.57"/>
        <line class="cls-1" x1="205.5" y1="378.58" x2="283.99" y2="378.58"/>
        <ellipse class="cls-1" cx="245.19" cy="163.82" rx="7.63" ry="7.59"/>
        <ellipse class="cls-1" cx="281.54" cy="186.85" rx="4.69" ry="4.67"/>
        <ellipse class="cls-1" cx="207.6" cy="186.93" rx="4.69" ry="4.67"/>
        <line class="cls-1" x1="245.17" y1="189.19" x2="245.12" y2="212.63"/>
        <line class="cls-1" x1="256.87" y1="198.11" x2="233.33" y2="198.07"/>
      </g>
      <path class="cls-2" d="M55.88,92.3s17.16,40.47,46.29,36.17c29.13-4.3,24.81-13.97,29.13-4.3,4.32,9.67,18.89,51.56,2.43,58.01-16.46,6.45-25.7,26.49-35.1,15.93s-32.06,5.41-19.11,30.19c12.95,24.78,12.95,84.94,12.95,84.94,0,0-58.25,1.07-55.02-26.86,3.24-27.93-9.71-64.46-9.71-64.46l-20.89-21.02"/>
      <path class="cls-2" d="M55.88,389.1s44.21-43.92,59.6-17.1c15.4,26.83-3.85,26.83,5.77,48.87,9.62,22.04,8.08,29.01,8.08,29.01"/>
      <path class="cls-2" d="M444.29,115.88s.78,50.14-22.51,51.69c-23.28,1.55-28.72,37.1-41.91,27.05-13.19-10.05-27.94,30.97-12.42,59.15,15.52,28.18,70.63,10.46,70.63,0s3.88-25.28,13.97-19.41l25.44,21.3"/>
    </g>
  </g>
</svg>