<?xml version="1.0" encoding="UTF-8"?>
<svg id="Layer_2" data-name="Layer 2" xmlns="http://www.w3.org/2000/svg" viewBox="0 0 487.67 494.5">
  <defs>
    <style>
      .cls-1 {
        fill: #000;
        stroke-width: 0px;
      }
    </style>
  </defs>
  <g id="Layer_1-2" data-name="Layer 1">
    <g>
      <g>
        <g>
          <path class="cls-1" d="M473.58,124.44c-8.12-1.83-16.39,2.41-19.84,10.41-.78,1.8-1.73,2.23-3.54,2.22-17.02-.05-34.05-.03-51.07-.04-.68,0-1.37-.05-1.99-.07-1.52-2.03-1.22-3.58.34-5.53,14.79-18.44,29.51-36.96,44.14-55.54,1.48-1.88,2.87-2.41,5.2-2.15,9.24,1.03,17.37-5.27,19.04-14.49,1.61-8.94-3.95-17.7-12.74-20.08-8.95-2.42-18.2,2.36-21.3,11.07-2.38,6.67-.83,12.63,3.66,18.19-15.12,19.04-30.08,37.86-45.05,56.67-.44.55-1.19.84-1.8,1.26-.29-.76-.8-1.5-.86-2.27-.5-6.2-.28-12.53-1.48-18.58-8.42-42.58-47.57-69.37-90.52-62.2-42.37,7.07-71.62,50.3-62.68,92.42,2.2,10.36,7.18,19.4,12.48,28.36,5.15,8.72,9.29,17.86,11.73,27.74,3.08,12.47,4.24,25.14,3.95,37.96-.13,5.99,2.04,11.33,7.28,14.01,4.32,2.19,5.2,4.93,4.64,9.04-.08.58-.01,1.18,0,1.78.16,5.29,2.08,10.25,6.66,12.53,5.14,2.56,5.58,6.06,5.6,10.97.04,9.17,7.04,16.13,15.84,16.41,5.63.18,11.29.18,16.92,0,8.27-.26,15.03-6.73,15.75-14.95.21-2.36.22-4.75.14-7.12-.05-1.61.45-2.4,2.02-3.06,5.61-2.37,9.01-6.72,9.98-12.71.42-2.61.29-5.33.2-8-.05-1.7.45-2.56,2.1-3.31,6.44-2.98,9.69-8.18,9.83-15.28.06-2.96-.04-5.94.02-8.91.48-21.7,5.67-42.04,17.61-60.4.42-.64,1.21-1.34,1.91-1.44,3.65-.55,7.32-.92,11.5-1.41.08.09.65.75,1.19,1.45,13.67,17.83,27.31,35.67,41.03,53.45,1.4,1.82,1.8,3.15.76,5.47-4.2,9.4.81,20.23,10.59,23.53,9.6,3.23,20.05-2.3,22.72-12.03,2.72-9.92-3.47-20.25-13.63-21.92-3.65-.61-7.53.19-11.3.34-.08.65-.19.62-.24.55-14.65-19.07-29.31-38.12-43.85-57.27-.61-.79-.47-2.61.01-3.64.33-.71,1.81-1.27,2.79-1.28,17.02-.07,34.06-.03,51.08-.08,1.67,0,2.57.38,3.31,2.08,3.52,8.13,11.71,12.29,20.11,10.46,8.01-1.74,13.9-9.15,13.85-17.41-.04-8.3-5.82-15.34-14.09-17.2ZM448.44,48.08c4.53,0,8.33,3.8,8.24,8.29-.09,4.41-3.78,8.02-8.21,8.03-4.56.01-8.33-3.77-8.24-8.3.09-4.39,3.79-8.01,8.21-8.02ZM324.3,279.5c-.38,3.2-3.25,5.46-6.74,5.54-5.24.11-10.48.13-15.73,0-3.79-.1-6.5-2.64-6.89-6.46-.24-2.43-.04-4.91-.04-7.67h29.46c0,2.95.26,5.81-.06,8.59ZM336.79,254.23c-.19,4-3,6.96-7.04,7-13.36.1-26.73.1-40.09,0-4.05-.03-6.81-3-6.96-7.03-.09-2.26-.02-4.52-.02-6.99h54.12c0,2.5.09,4.77-.01,7.03ZM348.71,229.78c-.1,4.69-2.86,7.56-7.59,7.68-4.75.12-9.49.03-14.24.04-15.52,0-31.05,0-46.57-.01-7.25,0-9.55-2.32-9.56-9.58v-4.57h77.96c0,2.32.04,4.38,0,6.44ZM293.33,123.63c-.47-.01-.94-.07-2-.16,6.29-7.98,12.21-15.5,18.39-23.37,6.12,7.77,12.07,15.32,18.35,23.29-1.19.1-1.99.23-2.79.24-6.01.08-7.22,1.3-7.22,7.41-.01,12.07,0,24.15,0,36.21v46.19h-16.73v-81.74c0-7.16-.73-7.89-8-8.07ZM353.01,77.68c-2.87-9.33-12.54-14.55-21.87-11.83-9.32,2.73-14.66,12.33-12.11,21.73,2.49,9.15,12,14.66,21.34,12.44.97-.22,2.62-.19,3.06.4,7.54,10.04,14.94,20.18,22.31,30.23-5.28,9.34-4.88,15.33,1.21,23.41.51.67.3,2.38-.2,3.24-4.92,8.49-9.83,17.04-12.18,26.61-2.18,8.9-3.55,18-5.26,27.01-.15.76-.19,1.55-.3,2.52h-21.23v-80.3c1.44,0,2.7-.03,3.96,0,3.3.08,5.77-1.34,7.23-4.26,1.47-2.95.94-5.77-1.06-8.33-3.77-4.83-7.57-9.65-11.37-14.47-3.42-4.36-6.83-8.73-10.3-13.05-3.91-4.85-9.18-4.87-13.02-.02-7.13,8.99-14.19,18.04-21.33,27.03-2.15,2.71-2.98,5.62-1.42,8.81,1.55,3.2,4.3,4.48,7.8,4.3,1.06-.06,2.13-.01,3.37-.01v80.29h-20.98c-1.01-6.46-1.81-12.92-3.05-19.29-2.38-12.35-7.25-23.77-13.65-34.57-4.58-7.74-9.14-15.46-11.24-24.39-8.72-36.96,16.58-75.65,53.97-82.37,39.07-7.02,74.7,18.26,80.85,57.48.71,4.45.66,9.03.95,13.43q-4.89,1.54-7.6-2.12c-6.84-9.33-13.68-18.66-20.58-28.05,3.27-4.95,4.45-10.18,2.7-15.87ZM344.32,82.8c0,4.52-3.77,8.21-8.35,8.16-4.47-.06-8.06-3.66-8.07-8.11-.02-4.58,3.68-8.2,8.32-8.14,4.45.05,8.09,3.69,8.1,8.09ZM379.72,149.91c-4.52-.04-8.07-3.63-8.07-8.16s3.55-8.12,8.07-8.15,8.15,3.51,8.22,8c.07,4.66-3.58,8.35-8.22,8.31ZM448.62,216.87c4.39.1,8.07,3.86,8.06,8.23-.02,4.5-3.94,8.33-8.4,8.21-4.4-.11-8.06-3.87-8.05-8.24.02-4.51,3.91-8.31,8.39-8.2ZM469.98,149.9c-4.56.02-8.34-3.77-8.25-8.27.09-4.42,3.77-8.02,8.2-8.03,4.57-.01,8.3,3.75,8.22,8.27-.07,4.45-3.71,8.02-8.17,8.03Z"/>
          <path class="cls-1" d="M378.44,22.32c-.3.71-.61,1.75-1.13,2.67-2.53,4.46-5.08,8.9-7.68,13.31-1.82,3.09-4.31,4.02-6.84,2.65-2.62-1.42-3.17-4.23-1.35-7.42,2.63-4.62,5.32-9.22,7.99-13.82,1.25-2.15,3.16-3.01,5.51-2.37,2.24.61,3.33,2.31,3.5,4.97Z"/>
          <path class="cls-1" d="M198.2,63.49c1.82.68,2.89.92,3.8,1.44,4.55,2.57,9.07,5.18,13.57,7.83,3.01,1.77,3.9,4.4,2.45,6.9-1.46,2.5-4.13,3.03-7.21,1.29-4.72-2.66-9.42-5.36-14.07-8.14-2.07-1.23-3.23-3.27-2.15-5.51.74-1.55,2.45-2.63,3.62-3.8Z"/>
          <path class="cls-1" d="M404.89,82.5c-1.28-1.2-2.97-2.18-3.72-3.64-.94-1.84-.46-4.08,1.45-5.24,5.3-3.22,10.64-6.39,16.12-9.27,2.07-1.09,4.32-.36,5.67,1.79,1.33,2.11,1.26,4.55-.76,5.84-5.46,3.5-11.18,6.6-16.81,9.82-.39.23-.96.15-1.45.21-.17.17-.33.33-.5.5Z"/>
          <path class="cls-1" d="M259.65,37.45c-1.2,1.25-2.2,2.85-3.64,3.68-1.93,1.12-4.08.37-5.2-1.44-3.26-5.27-6.43-10.62-9.32-16.1-1.18-2.24-.29-4.5,2.02-5.81,2.17-1.22,4.53-.97,5.82,1.06,3.37,5.32,6.4,10.85,9.52,16.33.27.48.2,1.15.29,1.73.17.18.34.36.52.54Z"/>
          <path class="cls-1" d="M314.42,13.52c0,2.76.08,5.52-.02,8.28-.11,2.92-1.9,4.8-4.46,4.91-2.68.12-4.84-1.77-4.92-4.78-.15-5.71-.15-11.43,0-17.14.08-2.98,2.28-4.91,4.93-4.78,2.55.13,4.35,2.02,4.45,4.94.1,2.85.02,5.71.02,8.57Z"/>
        </g>
        <path class="cls-1" d="M143.19,306.96c-1.99-10.04-4.06-20.43-5.96-30.68-2.13-11.41-8.24-18.07-19.23-20.96-12.1-3.17-24.05-6.61-35.25-9.86-.2-.05-4.79-1.44-5.43-4.56-1.09-5.12-1.92-10.28-2.79-15.73-.3-1.9-.61-3.83-.93-5.81l-.56-3.39,3.37.7c4.21.89,7.85,1.64,11.33,2.37l3.86.8c1.85.39,3.67.58,5.43.58,1.27,0,2.51-.1,3.72-.3,3.22-.53,6.33-1.8,9.25-3.76,3.74-2.53,7.5-5.03,11.25-7.54,7.82-5.23,15.9-10.63,23.76-16.07,10.81-7.47,13.59-21.07,6.47-31.63-4.98-7.4-13.5-11.1-22.26-9.66-3.32.55-6.51,1.81-9.49,3.73-1.34.87-2.7,1.73-4.05,2.59-4.73,2.99-9.61,6.09-13.94,9.61-3.23,2.63-6.54,4.2-10.1,4.79-3.17.52-6.63.27-10.56-.77-7.6-1.99-15.28-3.52-23.41-5.13-3.48-.69-7.02-1.4-10.62-2.15v-4.61c23.61-4.95,32.17-24.03,30.12-39.66-2.22-17.06-17.37-30.3-34.49-30.14-1.86.02-3.72.19-5.55.49-15.35,2.54-27.34,14.84-29.14,29.93-1.24,10.28,1.52,19.45,8.19,27.25,6.39,7.44,14.96,11.48,26.2,12.34l.53,4.6c-15.18,4.81-20.94,13.73-18.69,28.91,1.54,10.36,3.08,20.7,4.63,31.05,3.03,20.28,6.17,41.25,9.16,61.89.41,2.86-.07,6.16-1.29,8.83-5.03,10.97-10.22,22.09-15.23,32.84-5.49,11.76-11.17,23.92-16.65,35.93-5.25,11.49-.67,24.31,10.67,29.81,4.34,2.12,9.11,2.83,13.78,2.06,7.11-1.18,12.99-5.6,16.13-12.14,9.79-20.38,19.52-41.31,28.93-61.55,4.04-8.68,8.09-17.39,12.18-26.13l.59-1.27,1.4-.09c2.78-.16,6.35.94,7.51,7.15,2.85,15.13,6.07,32.29,9.82,48.75,1.96,8.69,10.01,15.28,19.57,16.02,1.96.15,3.92.07,5.81-.24,6-1,11.2-4.24,14.64-9.15,3.51-4.99,4.8-11.21,3.63-17.52-2-10.86-4.19-21.87-6.31-32.52ZM27.47,145.13c-5.57-4.08-9.17-10-10.14-16.66-2.02-13.92,7.23-26.62,21.07-28.91l.13-.02c6.8-1.09,13.63.57,19.22,4.67,5.52,4.04,9.1,9.94,10.09,16.62,2.03,13.71-7.45,26.7-21.19,28.97-6.75,1.1-13.56-.56-19.18-4.67ZM131.64,356.39c-.67.24-1.37.42-2.08.54-5.35.88-10.86-1.67-13.41-6.22-1.35-2.42-2.02-5.18-2.45-7.33-1.83-9.03-3.62-18.23-5.36-27.13-.71-3.65-1.43-7.3-2.14-10.95-.26-1.31-.52-2.61-.78-3.9-.57-2.84-1.16-5.78-1.69-8.7-.53-2.99-2.02-4.6-4.99-5.38-2.86-.74-5.74-1.56-8.53-2.34-2.77-.79-5.63-1.6-8.44-2.33-1.34-.34-2.54-.43-3.56-.26-3.56.58-3.5,4.22-3.15,6.33.8,4.85.11,9.35-2.16,14.16-7.58,16.1-15.23,32.5-22.62,48.37-4.02,8.63-8.05,17.26-12.08,25.89-2.49,5.32-5.97,8.39-10.36,9.12-1.41.23-2.91.22-4.47-.04-3.86-.63-7.23-2.81-9.24-5.99-2-3.18-2.51-6.98-1.43-10.71.45-1.55,1.12-2.97,1.78-4.34l.39-.85,6.17-13.25c8.27-17.8,16.83-36.2,25.37-54.24,1.52-3.21,1.95-6.32,1.37-10.08-4.55-29.58-9.02-59.68-13.35-88.77l-.94-6.32c-1.44-9.71,2.17-16.01,9.92-17.29,2.42-.4,5.21-.28,8.31.36l5.38,1.11c10.68,2.21,21.72,4.49,32.55,6.86,1.54.34,2.91.4,4.19.19,1.46-.24,2.87-.85,4.32-1.85,8.45-5.9,17.17-11.67,25.62-17.26l.35-.24c2.2-1.44,4.47-2.37,6.75-2.75,5.19-.86,9.84,1.16,12.78,5.54,4.41,6.56,2.52,14.27-4.71,19.19-4.87,3.32-9.78,6.6-14.68,9.89-6.08,4.08-12.37,8.3-18.51,12.52-2.18,1.48-4.36,2.39-6.68,2.77-2.05.34-4.16.26-6.43-.25-6.6-1.49-13.69-2.98-22.33-4.69-1.35-.27-2.53-.32-3.52-.16-2.79.46-3.91,2.78-3.33,6.9.31,2.16.65,4.33.99,6.49l.35,2.17c.31,1.94.63,3.86.95,5.79l.87,5.23-.55.1c.15.9.31,1.8.46,2.7.66,3.78,1.33,7.69,1.86,11.58.48,3.6,2.01,5.36,5.48,6.28,6.58,1.75,13.23,3.63,19.65,5.45,7.18,2.03,14.6,4.12,21.92,6.05,7.18,1.89,11.16,6.2,12.53,13.56,2.22,11.93,4.61,24.05,6.92,35.76,1.77,8.99,3.6,18.27,5.35,27.42,1.32,6.86-2.14,13.01-8.61,15.3Z"/>
        <path class="cls-1" d="M431.79,277.8c0-6.99-3.18-6.99-4.22-6.99-1.31,0-2.9.41-4.74,1.22l-14.25,6.31c-17.76,7.86-36.12,15.98-54.1,24.17-1.9.86-3.94,2.93-5.07,5.13-1.93,3.77-3.38,7.97-4.79,12.02-.28.81-.56,1.63-.85,2.45-.32.9-.75,1.86-1.45,2.68-.97,1.16-2.45,2.05-4.88,2.1-.09.01-.17.01-.26.01-.58,0-1.16-.01-1.75-.01-8.77-.06-17.92-.09-27.19-.09s-18.9.03-28.91.08c-2.54,0-4.08-.9-5.06-2.09-.7-.83-1.12-1.79-1.44-2.71-1.11-3.25-2.4-6.53-3.65-9.69-.49-1.27-.99-2.54-1.48-3.8-2.6-6.7-6.35-6.7-7.58-6.7-1.55,0-3.33.44-5.3,1.32-5.9,2.62-11.8,5.26-17.7,7.9-15.16,6.78-30.83,13.78-46.34,20.47-4.53,1.94-6.05,4.25-6.04,9.14.14,35.85.13,72.3.12,107.55-.01,12.53-.01,25.06-.01,37.59,0,8.05.57,8.62,8.7,8.62h172.93c19.4,0,38.78,0,58.18-.02,5.93,0,7.13-1.2,7.13-7.13.02-8.49.01-16.98.01-25.47v-8.49c0-58.53,0-117.05-.01-175.57ZM422.2,484.71h-227.96v-34.96s.01-22.58.01-22.58c0-6.1,0-12.23-.01-18.37.01-.7.01-1.4,0-2.1.01-6.11,0-12.24,0-18.38v-2.1c-.01-6.12-.01-12.26-.03-18.38v-2.1c-.01-6.13-.02-12.26-.04-18.37v-.57c0-.54.02-1.05.07-1.53.33-3.73,2.02-5.89,5.73-7.48,3.19-1.38,6.36-2.75,9.52-4.14.7-.31,1.4-.61,2.1-.92,4.36-1.91,8.73-3.84,13.12-5.79.04-.02.07-.03.11-.05.66-.29,1.33-.59,1.99-.88.91-.41,1.82-.81,2.73-1.22,3.43-1.53,6.89-3.07,10.4-4.64.7-.31,1.4-.62,2.1-.93.15-.07.31-.14.46-.21,4.2-1.88,8.42-3.77,12.67-5.66.44-.19.88-.39,1.33-.59l2.26-1.01s2.83,7.31,5.04,13.04c.29.73.56,1.44.82,2.1.67,1.73,1.22,3.15,1.53,3.95,1.38,3.55,2.04,4.77,4.24,5.19.58.11,1.26.16,2.1.18.48.02,1.02.02,1.62.02,0,0,5.07,0,11.5,0h15.22c.72,0,1.42,0,2.1-.01h13.12c.71,0,1.41,0,2.1.01,4.74,0,9.06,0,13.13.02.71,0,1.41.01,2.1.01,3.31.01,6.46.03,9.54.05h.13c1.39,0,2.52-.15,3.45-.49.84-.29,1.53-.75,2.1-1.38.69-.75,1.21-1.75,1.65-3.06.49-1.47,1.02-2.96,1.58-4.48.25-.69.52-1.39.79-2.1,1.21-3.18,2.57-6.5,4.1-10,.96-2.24,2.85-4.25,4.79-5.13,2.38-1.08,4.78-2.16,7.17-3.24,1.56-.7,3.12-1.4,4.68-2.1,1.2-.54,2.39-1.07,3.59-1.61.7-.31,1.4-.63,2.1-.94,4.38-1.96,8.76-3.91,13.12-5.85.35-.15.7-.31,1.04-.46,4.76-2.11,9.5-4.21,14.18-6.28.4-.18.8-.36,1.19-.53l7.64-3.38c.62-.28,1.25-.49,1.91-.71.29-.09.6-.2.93-.31l3.14-1.1v201.56Z"/>
        <path class="cls-1" d="M154.65,376.48c-9.18-.02-18.36-.03-27.54-.03s-18.36.01-27.53.03c-5.93,0-7.12,1.21-7.12,7.17v103.57c0,6.08,1.1,7.23,6.98,7.24,9.25.03,18.5.04,27.75.04s18.51-.01,27.76-.04c5.68-.01,6.91-1.23,6.92-6.88v-104.01c-.01-5.83-1.29-7.09-7.22-7.09ZM152.3,484.74h-50.18v-98.63h50.18v98.63Z"/>
        <path class="cls-1" d="M69.44,424.61c-.01-5.66-1.24-6.89-6.88-6.9-9.25-.01-18.5-.01-27.75-.01s-18.5,0-27.75.01c-5.65,0-7.03,1.35-7.04,6.88-.03,20.89-.03,42.09,0,63,.01,5.43,1.36,6.84,6.56,6.86,9.4.03,18.8.05,28.2.05s18.79-.02,28.19-.05c5.31-.02,6.46-1.23,6.47-6.83.03-7.46.03-14.94.02-22.41v-17.88c.01-7.57.01-15.14-.02-22.72ZM59.76,484.75H9.97l-.24-2.07c-.04-.33-.09-.61-.13-.88-.09-.6-.17-1.17-.17-1.8,0-11.04,0-22.08,0-33.22v-19.3h50.34v57.27Z"/>
        <g>
          <g>
            <path class="cls-1" d="M287.71,388.32v18.38h3.52c-.22-5.26.01-10.54.01-15.8-.01-.18.04-.34.08-.56,2.44-.52,4.81-1.18,7.11-2.02h-10.72ZM287.71,388.32v18.38h3.52c-.22-5.26.01-10.54.01-15.8-.01-.18.04-.34.08-.56,2.44-.52,4.81-1.18,7.11-2.02h-10.72ZM287.71,388.32v18.38h3.52c-.22-5.26.01-10.54.01-15.8-.01-.18.04-.34.08-.56,2.44-.52,4.81-1.18,7.11-2.02h-10.72ZM287.71,388.32v18.38h3.52c-.22-5.26.01-10.54.01-15.8-.01-.18.04-.34.08-.56,2.44-.52,4.81-1.18,7.11-2.02h-10.72ZM287.71,388.32v18.38h3.52c-.22-5.26.01-10.54.01-15.8-.01-.18.04-.34.08-.56,2.44-.52,4.81-1.18,7.11-2.02h-10.72ZM287.71,388.32v18.38h3.52c-.22-5.26.01-10.54.01-15.8-.01-.18.04-.34.08-.56,2.44-.52,4.81-1.18,7.11-2.02h-10.72ZM287.71,388.32v18.38h3.52c-.22-5.26.01-10.54.01-15.8-.01-.18.04-.34.08-.56,2.44-.52,4.81-1.18,7.11-2.02h-10.72ZM287.71,388.32v18.38h3.52c-.22-5.26.01-10.54.01-15.8-.01-.18.04-.34.08-.56,2.44-.52,4.81-1.18,7.11-2.02h-10.72ZM287.71,388.32v18.38h3.52c-.22-5.26.01-10.54.01-15.8-.01-.18.04-.34.08-.56,2.44-.52,4.81-1.18,7.11-2.02h-10.72ZM287.71,388.32v18.38h3.52c-.22-5.26.01-10.54.01-15.8-.01-.18.04-.34.08-.56,2.44-.52,4.81-1.18,7.11-2.02h-10.72ZM287.71,388.32v18.38h3.52c-.22-5.26.01-10.54.01-15.8-.01-.18.04-.34.08-.56,2.44-.52,4.81-1.18,7.11-2.02h-10.72ZM287.71,388.32v18.38h3.52c-.22-5.26.01-10.54.01-15.8-.01-.18.04-.34.08-.56,2.44-.52,4.81-1.18,7.11-2.02h-10.72ZM287.71,388.32v18.38h3.52c-.22-5.26.01-10.54.01-15.8-.01-.18.04-.34.08-.56,2.44-.52,4.81-1.18,7.11-2.02h-10.72ZM287.71,388.32v18.38h3.52c-.22-5.26.01-10.54.01-15.8-.01-.18.04-.34.08-.56,2.44-.52,4.81-1.18,7.11-2.02h-10.72ZM287.71,388.32v18.38h3.52c-.22-5.26.01-10.54.01-15.8-.01-.18.04-.34.08-.56,2.44-.52,4.81-1.18,7.11-2.02h-10.72ZM287.71,388.32v18.38h3.52c-.22-5.26.01-10.54.01-15.8-.01-.18.04-.34.08-.56,2.44-.52,4.81-1.18,7.11-2.02h-10.72ZM287.71,388.32v18.38h3.52c-.22-5.26.01-10.54.01-15.8-.01-.18.04-.34.08-.56,2.44-.52,4.81-1.18,7.11-2.02h-10.72ZM287.71,388.32v18.38h3.52c-.22-5.26.01-10.54.01-15.8-.01-.18.04-.34.08-.56,2.44-.52,4.81-1.18,7.11-2.02h-10.72ZM287.71,388.32v18.38h3.52c-.22-5.26.01-10.54.01-15.8-.01-.18.04-.34.08-.56,2.44-.52,4.81-1.18,7.11-2.02h-10.72ZM329.51,388.32c0-.46,0-.93.01-1.4-1.11-.25-2.17-.48-3.2-.7-1.35-.29-2.63-.59-3.91-.93-1.46-.39-2.87-.87-4.26-1.42-.71-.27-1.41-.57-2.1-.89-2.22-1.01-4.36-2.22-6.43-3.57-.95-.63-1.7-.83-2.81-.08-1.26.88-2.55,1.66-3.88,2.38-.69.37-1.4.72-2.1,1.06-2.97,1.39-6.09,2.44-9.34,3.19-.41.09-.82.18-1.23.26-.84.17-1.69.32-2.55.47-.24.05-.48.1-.72.14v1.49c-.02,6.19-.05,12.29.01,18.38,0,.36.01.71.01,1.07s.01.68.03,1.03c.07,1.77.3,3.54.67,5.25,1.03,4.8,3.17,9.29,6.17,13.12.57.72,1.17,1.43,1.8,2.1,1.54,1.67,3.27,3.17,5.15,4.48.68.49,1.38.94,2.1,1.36,1.41.83,2.88,1.55,4.41,2.16.47.19,1.15.23,1.61.04,2.6-1.11,4.97-2.42,7.1-3.91.73-.52,1.43-1.05,2.1-1.61.97-.79,1.87-1.63,2.72-2.52.64-.67,1.25-1.38,1.82-2.1,3.43-4.36,5.58-9.66,6.28-15.9.1-.82.17-1.64.24-2.47.06-.69.1-1.4.14-2.1.34-6.09.1-12.25.16-18.38ZM325.13,407.06c-.02.59-.05,1.17-.09,1.74-.51,6.77-2.81,12.44-6.89,16.98-.42.48-.87.94-1.33,1.39-.24.24-.51.48-.77.71-.52.48-1.08.94-1.65,1.39-1.54,1.2-3.24,2.29-5.11,3.27-.73.38-1.33.45-2.09.05-1.53-.79-2.96-1.66-4.27-2.6-.33-.23-.65-.47-.97-.72-.38-.29-.76-.6-1.13-.91-.45-.38-.88-.78-1.3-1.19-4.89-4.71-7.66-10.84-8.19-18.37,0-.05-.01-.1-.01-.16-.04-.65-.07-1.3-.1-1.94-.22-5.26.01-10.54.01-15.8-.01-.18.04-.34.08-.56,2.44-.52,4.81-1.18,7.11-2.02.81-.28,1.61-.6,2.4-.93.7-.3,1.41-.61,2.1-.94.16-.07.3-.15.46-.23,1.43-.69,2.84-1.46,4.21-2.29.27-.17.8-.21,1.05-.06,1.42.86,2.86,1.65,4.33,2.35,1,.49,2.03.95,3.07,1.37l1.89.73c.08.02.14.05.21.07,2.26.8,4.59,1.45,7,1.96v4.13c0,4.08.09,8.15-.01,12.22,0,.12,0,.24,0,.36ZM287.71,388.32v18.38h3.52c-.22-5.26.01-10.54.01-15.8-.01-.18.04-.34.08-.56,2.44-.52,4.81-1.18,7.11-2.02h-10.72ZM287.71,388.32v18.38h3.52c-.22-5.26.01-10.54.01-15.8-.01-.18.04-.34.08-.56,2.44-.52,4.81-1.18,7.11-2.02h-10.72ZM287.71,388.32v18.38h3.52c-.22-5.26.01-10.54.01-15.8-.01-.18.04-.34.08-.56,2.44-.52,4.81-1.18,7.11-2.02h-10.72ZM287.71,388.32v18.38h3.52c-.22-5.26.01-10.54.01-15.8-.01-.18.04-.34.08-.56,2.44-.52,4.81-1.18,7.11-2.02h-10.72ZM287.71,388.32v18.38h3.52c-.22-5.26.01-10.54.01-15.8-.01-.18.04-.34.08-.56,2.44-.52,4.81-1.18,7.11-2.02h-10.72ZM287.71,388.32v18.38h3.52c-.22-5.26.01-10.54.01-15.8-.01-.18.04-.34.08-.56,2.44-.52,4.81-1.18,7.11-2.02h-10.72ZM287.71,388.32v18.38h3.52c-.22-5.26.01-10.54.01-15.8-.01-.18.04-.34.08-.56,2.44-.52,4.81-1.18,7.11-2.02h-10.72ZM287.71,388.32v18.38h3.52c-.22-5.26.01-10.54.01-15.8-.01-.18.04-.34.08-.56,2.44-.52,4.81-1.18,7.11-2.02h-10.72ZM287.71,388.32v18.38h3.52c-.22-5.26.01-10.54.01-15.8-.01-.18.04-.34.08-.56,2.44-.52,4.81-1.18,7.11-2.02h-10.72ZM287.71,388.32v18.38h3.52c-.22-5.26.01-10.54.01-15.8-.01-.18.04-.34.08-.56,2.44-.52,4.81-1.18,7.11-2.02h-10.72ZM287.71,388.32v18.38h3.52c-.22-5.26.01-10.54.01-15.8-.01-.18.04-.34.08-.56,2.44-.52,4.81-1.18,7.11-2.02h-10.72ZM287.71,388.32v18.38h3.52c-.22-5.26.01-10.54.01-15.8-.01-.18.04-.34.08-.56,2.44-.52,4.81-1.18,7.11-2.02h-10.72ZM287.71,388.32v18.38h3.52c-.22-5.26.01-10.54.01-15.8-.01-.18.04-.34.08-.56,2.44-.52,4.81-1.18,7.11-2.02h-10.72ZM287.71,388.32v18.38h3.52c-.22-5.26.01-10.54.01-15.8-.01-.18.04-.34.08-.56,2.44-.52,4.81-1.18,7.11-2.02h-10.72ZM287.71,388.32v18.38h3.52c-.22-5.26.01-10.54.01-15.8-.01-.18.04-.34.08-.56,2.44-.52,4.81-1.18,7.11-2.02h-10.72ZM287.71,388.32v18.38h3.52c-.22-5.26.01-10.54.01-15.8-.01-.18.04-.34.08-.56,2.44-.52,4.81-1.18,7.11-2.02h-10.72ZM287.71,388.32v18.38h3.52c-.22-5.26.01-10.54.01-15.8-.01-.18.04-.34.08-.56,2.44-.52,4.81-1.18,7.11-2.02h-10.72ZM287.71,388.32v18.38h3.52c-.22-5.26.01-10.54.01-15.8-.01-.18.04-.34.08-.56,2.44-.52,4.81-1.18,7.11-2.02h-10.72ZM287.71,388.32v18.38h3.52c-.22-5.26.01-10.54.01-15.8-.01-.18.04-.34.08-.56,2.44-.52,4.81-1.18,7.11-2.02h-10.72Z"/>
            <path class="cls-1" d="M308.2,389.21c-2.29-.01-4.17,1.01-5.27,2.61-.9,1.31-1.28,3.02-.94,4.89.31,1.78.63,3.57.94,5.35.25,1.39.49,2.77.74,4.16.03.17.06.32.1.48.21.82.55,1.53,1.01,2.1.82,1.03,2,1.61,3.4,1.61,1.42.01,2.6-.58,3.42-1.61.46-.57.81-1.28,1.01-2.1.03-.15.06-.29.09-.45.57-3.22,1.13-6.44,1.71-9.65.73-4.02-2.1-7.39-6.21-7.39ZM306.96,393.87c.61-.37,1.8-.39,2.42-.03.51.32.9,1.44.79,2.11-.48,3.4-1.15,6.76-1.75,10.13-.16.01-.3.01-.45.02-.35-1.89-.7-3.77-1.04-5.66-.27-1.47-.64-2.93-.73-4.43-.05-.72.24-1.81.76-2.14Z"/>
            <path class="cls-1" d="M308.17,414.66c-2.16.01-4.1,1.12-5.24,2.8-.69,1.01-1.09,2.22-1.1,3.51-.01,1.33.4,2.57,1.1,3.6.85,1.27,2.14,2.21,3.65,2.6.52.14,1.06.21,1.62.21s1.06-.07,1.55-.21c2.73-.69,4.77-3.18,4.79-6.1.02-3.53-2.85-6.41-6.37-6.41ZM308.22,423.13c-1.14.02-2.12-.92-2.14-2.07-.02-1.14.92-2.13,2.07-2.15,1.14-.02,2.13.92,2.15,2.07.02,1.14-.93,2.13-2.08,2.15Z"/>
          </g>
          <g>
            <rect class="cls-1" x="209.49" y="329.81" width="2.1" height="158.22"/>
            <rect class="cls-1" x="224.72" y="324.83" width="2.1" height="163.2"/>
            <rect class="cls-1" x="239.95" y="316.84" width="2.1" height="171.19"/>
            <rect class="cls-1" x="255.17" y="312.76" width="2.1" height="175.27"/>
            <rect class="cls-1" x="270.39" y="324.83" width="2.1" height="163.2"/>
            <g>
              <path class="cls-1" d="M287.71,333.71v44.34c-.69.12-1.4.2-2.1.28v-44.62h2.1Z"/>
              <path class="cls-1" d="M287.71,386.69v27.36c-.37-1.71-.6-3.48-.67-5.25-.02-.35-.03-.68-.03-1.03s-.01-.71-.01-1.07c-.06-6.09-.03-12.19-.01-18.38v-1.49c.24-.04.48-.09.72-.14Z"/>
              <path class="cls-1" d="M287.71,433.04v54.99h-2.1v-57.79c.65.96,1.35,1.91,2.1,2.8Z"/>
            </g>
            <g>
              <path class="cls-1" d="M302.93,332.88v38.9c-.33.18-.64.38-.97.61-.37.26-.75.5-1.13.74v-40.25h2.1Z"/>
              <path class="cls-1" d="M302.93,381.71v4.74c-.69.33-1.4.64-2.1.94v-4.62c.7-.34,1.41-.69,2.1-1.06Z"/>
              <path class="cls-1" d="M302.93,391.81v10.25c-.31-1.78-.63-3.57-.94-5.35-.34-1.87.04-3.58.94-4.89Z"/>
              <path class="cls-1" d="M302.93,417.46v7.11c-.7-1.03-1.11-2.27-1.1-3.6.01-1.29.41-2.5,1.1-3.51Z"/>
              <path class="cls-1" d="M302.93,429.99v5.12c-.72-.42-1.42-.87-2.1-1.36v-5.39c.37.31.75.62,1.13.91.32.25.64.49.97.72Z"/>
              <path class="cls-1" d="M302.93,444.64v43.39h-2.1v-44.39c.68.36,1.39.69,2.1,1Z"/>
            </g>
            <g>
              <path class="cls-1" d="M318.15,333.71v40.9c-.7-.37-1.41-.77-2.1-1.19v-39.71h2.1Z"/>
              <path class="cls-1" d="M318.15,383.87v4.52c-.07-.02-.13-.05-.21-.07l-1.89-.73v-4.61c.69.32,1.39.62,2.1.89Z"/>
              <path class="cls-1" d="M318.15,425.78v6.01c-.67.56-1.37,1.09-2.1,1.61v-5.52c.26-.23.53-.47.77-.71.46-.45.91-.91,1.33-1.39Z"/>
              <path class="cls-1" d="M318.15,442.17v45.86h-2.1v-44.66c.72-.37,1.42-.77,2.1-1.2Z"/>
            </g>
            <g>
              <path class="cls-1" d="M333.38,333.71v44.85c-.7-.03-1.4-.08-2.1-.15v-44.7h2.1Z"/>
              <path class="cls-1" d="M333.38,425.82v62.21h-2.1v-58.76h.13c.44-.68.85-1.39,1.26-2.1.24-.44.48-.89.71-1.35Z"/>
            </g>
            <rect class="cls-1" x="346.5" y="324.83" width="2.1" height="163.2"/>
            <rect class="cls-1" x="361.73" y="309.66" width="2.1" height="178.37"/>
            <rect class="cls-1" x="376.95" y="301.43" width="2.1" height="186.59"/>
            <rect class="cls-1" x="392.17" y="295.46" width="2.1" height="192.57"/>
            <rect class="cls-1" x="407.4" y="288.65" width="2.1" height="199.38"/>
          </g>
          <rect class="cls-1" x="359.58" y="304.32" width="65.31" height="2.1"/>
          <rect class="cls-1" x="221.57" y="324.79" width="203.32" height="2.1"/>
          <rect class="cls-1" x="188.13" y="345.27" width="236.76" height="2.1"/>
          <rect class="cls-1" x="188.13" y="365.74" width="236.76" height="2.1"/>
          <g>
            <rect class="cls-1" x="188.13" y="386.22" width="90.36" height="2.1"/>
            <path class="cls-1" d="M303.39,386.22c-.16.08-.3.16-.46.23-.69.33-1.4.64-2.1.94-.79.33-1.59.65-2.4.93h-11.44v-1.49c.24-.04.48-.09.72-.14.86-.15,1.71-.3,2.55-.47h13.13Z"/>
            <path class="cls-1" d="M329.52,386.92c-.01.47-.01.94-.01,1.4h-11.57l-1.89-.73c-1.04-.42-2.07-.88-3.07-1.37h13.34c1.03.22,2.09.45,3.2.7Z"/>
            <rect class="cls-1" x="337.88" y="386.22" width="87.01" height="2.1"/>
          </g>
          <g>
            <path class="cls-1" d="M278.55,408.8h-90.42v-2.1h90.38v.75c0,.45.01.9.04,1.35Z"/>
            <path class="cls-1" d="M291.34,408.8h-4.3c-.02-.35-.03-.68-.03-1.03s-.01-.71-.01-1.07h4.23c.03.64.06,1.29.1,1.94,0,.06.01.11.01.16Z"/>
            <path class="cls-1" d="M312.61,406.7c-.2.82-.55,1.53-1.01,2.1h-6.82c-.46-.57-.8-1.28-1.01-2.1h8.84Z"/>
            <path class="cls-1" d="M329.35,406.7c-.04.7-.08,1.41-.14,2.1h-4.17c.04-.57.07-1.15.09-1.74,0-.12,0-.24,0-.36h4.21Z"/>
            <path class="cls-1" d="M424.89,406.7v2.1h-87.08c.02-.52.04-1.05.04-1.57v-.53h87.04Z"/>
          </g>
          <g>
            <path class="cls-1" d="M284.98,429.27h-96.85v-2.1h95.58c.4.71.82,1.42,1.27,2.1Z"/>
            <path class="cls-1" d="M301.96,429.27h-6.28c-.63-.67-1.23-1.38-1.8-2.1h5.65c.42.41.85.81,1.3,1.19.37.31.75.62,1.13.91Z"/>
            <path class="cls-1" d="M306.59,427.17h3.17c-.49.14-1.02.21-1.55.21s-1.1-.07-1.62-.21Z"/>
            <path class="cls-1" d="M322.69,427.17c-.57.72-1.18,1.43-1.82,2.1h-6.47c.57-.45,1.13-.91,1.65-1.39.26-.23.53-.47.77-.71h5.87Z"/>
            <path class="cls-1" d="M424.89,427.17v2.1h-93.48c.44-.68.85-1.39,1.26-2.1h92.22Z"/>
          </g>
          <rect class="cls-1" x="188.13" y="447.65" width="236.76" height="2.1"/>
          <rect class="cls-1" x="188.13" y="468.12" width="236.76" height="2.1"/>
        </g>
      </g>
      <path class="cls-1" d="M331.28,429.27v.19c.05-.06.09-.13.13-.19h-.13ZM284.98,429.27c.2.33.41.65.63.97v-.97h-.63Z"/>
    </g>
  </g>
</svg>