<?xml version="1.0" encoding="UTF-8"?>
<svg id="Layer_2" data-name="Layer 2" xmlns="http://www.w3.org/2000/svg" viewBox="0 0 500.77 486.5">
  <defs>
    <style>
      .cls-1 {
        fill: #000;
        stroke-width: 0px;
      }
    </style>
  </defs>
  <g id="Layer_1-2" data-name="Layer 1">
    <g>
      <g>
        <g>
          <path class="cls-1" d="M79.05,486.5c-23.64-11.05-43.72-26.41-58.46-48.26-8.27-12.26-14.18-25.56-17.51-39.97-.23-1-.09-2.41.48-3.19,1.22-1.66,3.59-.74,4.24,1.49,1.29,4.42,2.37,8.92,3.95,13.23,9,24.63,24.71,44.1,46.23,58.84,6.72,4.61,14.09,8.28,21.2,12.3.63.35,1.74.37,2.4.05,21.91-10.53,40.56-25,54.32-45.31,7.9-11.66,13.58-24.3,16.87-38.01.11-.45.2-.9.34-1.34.46-1.4,1.42-2.09,2.89-1.87,1.37.2,2.25,1.43,1.95,2.96-.44,2.2-1,4.38-1.64,6.53-8.73,29.52-26.39,52.49-51.71,69.6-7.22,4.88-15.18,8.66-22.8,12.94h-2.77Z"/>
          <path class="cls-1" d="M148.52,368.06c0-4.8-.06-8.26.01-11.72.1-4.38-1.8-7.28-5.89-8.98-10.4-4.33-18.25-11.49-23.3-21.61-1.6-3.2-4.18-4.77-7.77-4.76-20.76.01-41.52.01-62.28,0-3.59,0-6.17,1.57-7.77,4.77-5.09,10.19-12.98,17.35-23.46,21.69-3.95,1.64-5.78,4.5-5.72,8.73.06,4.67,0,9.34.02,14.01.06,14.41,2.77,28.29,8.47,41.54,11.37,26.44,30.51,45.61,55.64,59.12,2.64,1.41,5.29,1.4,7.94,0,18.41-9.77,33.81-22.96,45.46-40.31,12.94-19.29,19.16-40.58,18.65-62.48ZM143.43,356.55c-.18,8.3.07,16.64-.72,24.88-1.79,18.68-8.84,35.43-19.97,50.47-10.68,14.43-24.16,25.6-39.91,34.1-1.47.8-2.8,1.05-4.39.2-20.39-10.97-36.79-26.09-48.1-46.43-8.34-14.98-12.69-31.08-12.88-48.25-.06-5.25.02-10.5-.04-15.75-.02-1.81.74-2.88,2.39-3.56,11.69-4.86,20.55-12.8,26.21-24.19.83-1.67,2.15-2.04,3.83-2.04,10.21.02,20.42.01,30.63.01s20.3.03,30.45-.03c2.03,0,3.27.72,4.21,2.58,5.51,10.88,14.05,18.55,25.21,23.35,2.8,1.21,3.14,1.6,3.08,4.65Z"/>
          <path class="cls-1" d="M80.48,309.3c13.67,0,27.34,0,41.01,0,4.61,0,6.88,2.08,7.79,6.61,2.13,10.6,8.84,17.18,18.78,20.71,2.04.72,4.24,1.09,6.39,1.43,4.12.66,6.39,3.09,6.39,7.25,0,10.67-.05,21.34-.12,32.01-.01,1.96-.21,3.92-.39,5.87-.17,1.86-1.32,2.87-2.92,2.66-1.48-.19-2.18-1.39-2.15-3.21.22-12.45.4-24.9.58-37.35.02-1.43-.75-2-2.12-2.18-7.14-.93-13.58-3.55-19.05-8.3-5.54-4.81-9.15-10.77-10.35-18.07-.29-1.75-1.09-2.39-2.88-2.39-27.34.04-54.68.04-82.02,0-1.65,0-2.59.46-2.85,2.21-1.76,11.87-11.51,22.79-26.03,25.95-1.18.26-2.38.49-3.58.61-1.46.15-1.96.96-1.96,2.32.02,3.86-.05,7.73.02,11.59.16,8.64.38,17.29.59,25.93.04,1.72-.88,2.95-2.37,3.05-1.38.09-2.58-.93-2.68-2.59-.25-3.91-.5-7.83-.53-11.75-.08-8.65-.03-17.3-.02-25.96,0-4.73,2.15-7.13,6.83-7.7,11.67-1.43,21.32-9.32,24.23-19.84.25-.89.42-1.79.57-2.7.68-3.95,3.27-6.18,7.29-6.19,13.84-.01,27.69,0,41.53,0Z"/>
        </g>
        <g>
          <path class="cls-1" d="M197.26,385.47c-2.96,0-5.93,0-8.89-.04-5.01-.04-6.15-1.21-6.13-6.21,0-2.25-.01-4.2-.03-5.91-.05-4.85-.08-7.78.73-8.99.81-1.21,3.5-2.29,7.97-4.08,1.54-.62,3.29-1.32,5.3-2.16,10.87-4.54,22.56-9.4,34.44-14.13,3.95-1.58,5.71-4.14,5.71-8.31-.08-36.57-.08-73.74-.08-109.69v-34.11c0-5.21-7.23-14.08-12.73-14.11-7.58-.04-15.16-.05-22.83-.05-4.21,0-30.35.01-30.35.01l3.86,10.15c5.83,15.34,11.46,30.15,17.07,44.97,4.04,10.65,3.38,21.25-1.87,29.84-5.31,8.71-14.61,14.22-26.18,15.52-1.1.12-2.23.19-3.34.19-17.79,0-34.05-15.92-34.11-33.41,0-1.81.68-3.86,1.2-5.25,4.67-12.39,9.47-24.97,14.11-37.13,1.98-5.19,3.96-10.39,5.94-15.58.42-1.1.78-2.19,1.21-3.45.2-.58.41-1.2.64-1.89l1.37-3.98h-4.21c-1.16,0-2.27,0-3.35.02-1,0-1.97.01-2.92.01-1.2,0-2.38-.01-3.56-.05-8.14-.27-14.28-6.1-14.59-13.87-.31-7.74,5.34-14.02,13.44-14.93,1.29-.14,2.65-.15,3.93-.15h1.28c13.44,0,26.87,0,40.31,0h.31c13.54,0,27.08,0,40.62-.01,7.25,0,14.71-7.37,14.78-14.6.01-1.18,0-2.37,0-3.56-.01-2.71-.03-5.27.17-7.83.6-7.48,6.6-12.92,14.28-12.92h.39c7.48.17,13.45,5.92,13.88,13.39.03.46.06.92.09,1.39.12,1.78.24,3.46-.05,4.87-1.76,8.58,3.28,13.79,7.87,17.38,2.07,1.6,4.92,1.83,7.44,1.85,12.24.03,24.47.04,36.7.04,14.76,0,30.03.01,45.05.07,3.42.01,6.17.39,8.43,1.17,6.14,2.12,10.03,8.6,9.04,15.08-1.11,7.23-6.43,12.18-13.57,12.61-1.05.06-2.18.09-3.58.09-1.03,0-2.08-.02-3.17-.03-1.23-.02-2.51-.04-3.87-.04h-4.19l1.35,3.97c.26.76.49,1.46.71,2.12.42,1.28.79,2.39,1.22,3.53,1.67,4.42,3.33,8.86,4.98,13.3,4.5,12.04,9.15,24.49,14.05,36.63,2.2,5.47,2.32,10.91.36,17.12-4.4,13.95-18.06,24.07-32.47,24.07-.92,0-1.84-.04-2.74-.13-17.1-1.58-30.3-14.01-32.09-30.23-.31-2.77.13-6.02,1.19-8.92,4.71-12.84,9.69-25.83,14.5-38.4,1.77-4.61,3.53-9.22,5.29-13.84.41-1.07.78-2.16,1.17-3.32.2-.58.41-1.19.63-1.85l1.39-3.99h-4.22c-4.67,0-9.3,0-13.9-.01-4.56,0-9.09-.01-13.6-.01-8.35,0-15.12.02-21.31.06-5.74.05-12.63,9.02-12.63,14.63v88.29c0,4.8.02,9.6.03,14.4.04,12.63.09,25.69-.18,38.51-.12,5.77,2.09,9.01,7.64,11.18,10.04,3.94,20.19,8.14,30,12.21,3.5,1.45,7,2.9,10.51,4.35q6.07,2.5,6.08,9.32v1.86c0,1.89,0,3.78-.01,5.68-.05,6.38-.92,7.26-7.17,7.26-16.78,0-33.55.01-50.33.01h-51.58c-2.13,0-10.65.02-12.78.02ZM250.45,345.43c-1.21,0-2.31.2-3.26.58-15.27,6.17-31.48,12.85-52.56,21.69-1.31.54-2.14,1.5-3.02,2.52-.39.45-.8.92-1.31,1.43l-5.08,5.11h124.29l1.35-2.95.98-2.18-1.91-1.44c-.32-.24-.62-.51-.93-.78-.87-.76-1.85-1.62-3.17-2.18-13.96-5.8-32.39-13.43-51.2-21.02-1.27-.51-2.76-.79-4.19-.79ZM244.91,336.01h11.68v-145.05h-11.68v145.05ZM316.34,251.66c2.3,10.4,13.09,18.54,24.57,18.54.24,0,.48,0,.71-.01,11.65-.34,23.79-10.23,23.63-19.23l-.05-2.95h-49.67l.81,3.65ZM135.79,251.66c2.73,10.56,13.21,18.53,24.38,18.53.46,0,.93-.01,1.39-.04,11.72-.69,21.9-8.97,23.19-18.85l.44-3.39h-50.37l.97,3.75ZM338.14,182.17c-6.91,18.1-13.41,35.11-20.24,52.97l-1.56,4.07h49.01l-1.54-4.06c-6.65-17.56-13.14-34.69-20.07-52.97l-2.8-7.37-2.81,7.37ZM157.66,182.15c-4.17,10.94-8.2,21.52-12.22,32.06l-9.51,24.94h48.94l-24.4-64.37-2.81,7.38ZM250.32,144.15c-10.56.14-18.8,8.56-18.77,19.17.04,10.42,8.5,19.03,18.88,19.18h.27c5.04,0,9.83-2.02,13.5-5.71,3.68-3.7,5.7-8.53,5.69-13.6-.02-10.5-8.67-19.04-19.28-19.04h-.28ZM137.18,156.88c-1.1,0-1.99.25-2.74.78-1.14.82-2.03,1.78-2.82,2.63-.28.31-.57.62-.86.91l-2.18,2.2,2.27,2.11c.31.29.61.6.91.91.84.86,1.78,1.83,3.01,2.56.74.45,1.61.66,2.66.66.38,0,.79-.03,1.2-.07.23-.02.45-.04.66-.04h38.81c12.62,0,25.25,0,37.87,0,1.1,0,2.14-.1,3.15-.19.44-.04.89-.08,1.33-.11l2.79-.2v-11.53l-2.75-.23c-.49-.04-.92-.09-1.31-.13-.8-.08-1.55-.16-2.34-.16-26.07-.01-52.13-.01-78.2-.01-.16,0-.33-.02-.5-.03-.32-.02-.65-.04-.96-.04ZM362.88,169.53c.19,0,.39.01.6.02.33.02.66.04.99.04.85,0,2.11-.1,3.21-.96.94-.73,3.21-2.74,3.47-5.38.32-2.96-2.98-5.15-4.16-5.68-1.25-.56-2.55-.63-3.54-.63-.3,0-.61,0-.91.01-.25,0-.5.01-.74.01-12.67,0-25.35-.02-38.03-.02s-25.36,0-38.03.02c-1.1,0-2.17.09-3.2.17-.48.04-.98.08-1.48.11l-2.81.18v11.53l2.71.27c.34.03.67.07.99.11.75.09,1.53.19,2.36.19,13.1,0,26.2,0,39.29,0s26.19,0,39.29,0ZM248.38,119.06c-.21.22-.51.49-.84.78-1.11.97-2.48,2.18-2.81,4.07-.36,2.22-.29,4.38-.23,6.47.03.8.05,1.6.05,2.4v3h12.3v-3c0-.89.03-1.74.07-2.56.08-2.09.16-4.06-.27-6.08-.41-1.91-1.8-3.17-2.92-4.17-.35-.32-.69-.62-.92-.88l-2.21-2.45-2.23,2.43Z"/>
          <path class="cls-1" d="M304.99,436.68c-41.21,0-82.42,0-123.63-.01h-.42c-1,0-1.89,0-2.71-.11-3.44-.46-3.86-2.41-3.84-4.07.02-2.28,1.19-3.53,3.57-3.85,1.52-.2,3.16-.21,4.84-.21h.81c69.13,0,138.26,0,207.38,0h10.11V124.98h-16.4c-3.34,0-6.65,0-9.96.01-2.88,0-5.77.03-8.65.06-3.49.03-6.98.06-10.48.06h-1.55c-7.37-.02-10.82-3.4-10.86-10.65-.06-9.05.03-18.26.11-27.17.04-3.88.07-7.77.09-11.65,0-1.2,0-2.39,0-3.66v-5.05H99.78v221.81c0,1.55,0,3.02-.06,4.49-.16,3.76-2.34,4.22-3.97,4.24h-.04c-1.1,0-3.62-.06-4.07-4.32-.1-.85-.08-1.75-.07-2.71,0-.34,0-.67,0-1.01V72.96c0-11.38,3.14-14.49,14.61-14.49h90.2c43.85,0,95.6,0,146.97-.09,4.31,0,7.06,1.11,9.87,3.96,15.47,15.74,32.25,32.53,52.81,52.86,2.61,2.58,3.63,4.96,3.63,8.49-.06,70.55-.07,142.27-.07,211.64,0,29.36,0,58.73,0,88.09,0,9.78-3.47,13.25-13.25,13.26-30.21,0-60.41.01-90.62.01h-.71ZM351.89,116.39h42.46l-42.46-42.54v42.54Z"/>
          <path class="cls-1" d="M45.72,216.43c-8.05,0-16.11-.02-24.16-.06-7.19-.04-10.45-3.24-10.56-10.4-.12-7.45-.09-15.03-.07-22.37.01-3.12.02-6.25.02-9.37v-20.46c0-46.67,0-93.35,0-140.02C10.94,2.44,13.41,0,24.84,0h142.82c10.12,0,12.75,2.62,12.76,12.74v3.97c.02,7.79.03,15.85-.02,23.76-.02,2.63-.71,5.78-3.92,5.86h-.13c-3.66,0-4.09-4.21-4.1-6.03-.05-6.68-.04-13.23-.03-20.15,0-2.89,0-11.72,0-11.72H19.61v199.83h32.91c2.17,0,4.28,0,6.39-.01,2.1,0,4.21-.01,6.31-.01,3.48,0,6.32.02,8.95.06,5.18.09,5.23,2.92,5.25,3.99.02,1.24-.26,2.14-.87,2.76-.84.86-2.41,1.32-4.53,1.32-9.43.03-18.87.06-28.3.06Z"/>
          <path class="cls-1" d="M342.78,467.5c-4.44,0-7.62-1.15-9.46-3.43-2.16-2.67-2.7-7.18-1.53-12.71.41-.78,2.53-2.13,3.4-2.15.36,0,1.81.57,4.18,3.15.13.34.21,1.27.27,1.89.07.73.14,1.55.3,2.4l.46,2.44h151.81v-199.81h-30.17c-10.81,0-21.62,0-32.44,0-.34,0-1.55.01-1.84.01-.67,0-1.45-.02-2.14-.14-3.5-.65-3.85-2.58-3.76-4.2.14-2.54,1.38-3.74,3.9-3.78,4.44-.07,8.83-.08,12.55-.08h9.6s18.8,0,23.59,0c5.93,0,11.85,0,17.78.03,8.22.03,11.42,3.12,11.43,11.03.06,66.88.06,132.24,0,194.29,0,7.81-3.34,11-11.49,11.01h-10.35c-11.79,0-23.59,0-35.38-.01-11.79,0-23.58-.01-35.37-.01-26.17,0-46.3.03-65.26.1h-.09Z"/>
          <path class="cls-1" d="M95.34,41.44h-18.6c-4.38.01-8.75,0-13.13-.02-5.6-.03-5.63-3.03-5.64-4.02-.01-1.19.29-2.08.93-2.73.87-.88,2.48-1.37,4.53-1.38,10.72-.02,21.43-.03,32.15-.03s21.56.01,32.34.03c2.11,0,5.67.53,5.71,4.01.01,1.06-.31,1.94-.96,2.6-.95.97-2.58,1.51-4.59,1.52-4.55.03-9.1.03-13.65.03-3.15,0-19.09-.01-19.09-.01Z"/>
          <path class="cls-1" d="M434.68,331.12c-2.52,0-5.03-.01-7.55-.05-1.95-.03-3.52-.58-4.43-1.54-.66-.7-.96-1.62-.92-2.73.14-3.16,3-3.84,5.38-3.85,6.37-.03,12.74-.04,19.12-.04s12.74.01,19.11.04c1.57,0,5.23.4,5.34,3.89.03,1.06-.29,1.95-.95,2.64-.95.99-2.55,1.56-4.5,1.59-2.51.04-5.01.05-7.52.05-1.93,0-3.87,0-5.8-.01-1.92,0-3.84-.01-5.76-.01s-3.89,0-5.81.01c-1.91,0-3.82.01-5.72.01Z"/>
          <path class="cls-1" d="M446.13,363.39c-6.65,0-13.25-.03-19.6-.08-2.91-.02-4.68-1.52-4.73-4-.02-1.1.29-2,.93-2.67.84-.87,2.28-1.37,4.04-1.39,2.6-.03,5.2-.04,7.8-.04,1.95,0,3.9,0,5.85.01,1.96,0,3.91.01,5.87.01s3.9,0,5.81,0c1.94,0,3.88,0,5.82,0,2.51,0,5.03,0,7.54.03,1.22.01,5.21.33,5.29,3.92.02,1.07-.33,2-1.03,2.72-.89.92-2.3,1.43-3.97,1.44-6.68.05-13.28.07-19.61.07Z"/>
          <path class="cls-1" d="M457.88,395.67c-1.85,0-3.7,0-5.54-.01-1.85,0-3.71-.01-5.56-.01,0,0-3.98,0-5.9,0-1.95,0-3.89,0-5.84,0-2.5,0-5,0-7.49-.03-3.75-.04-5.69-1.4-5.74-4.04-.02-1.11.28-2.01.92-2.65.9-.92,2.51-1.44,4.54-1.45,6.31-.03,12.62-.05,18.94-.05s12.86.02,19.29.05c1.22,0,5.2.31,5.27,3.94.02,1.06-.3,1.94-.96,2.62-.95.98-2.57,1.54-4.56,1.56-2.45.03-4.89.04-7.34.04Z"/>
          <path class="cls-1" d="M435.07,427.97c-2.51,0-5.02,0-7.53-.04-3.75-.04-5.69-1.41-5.75-4.05-.02-1.12.26-1.97.87-2.59.94-.96,2.74-1.5,5.08-1.5,6.34-.02,12.69-.03,19.03-.03s12.13.01,18.19.03c2.12,0,5.7.53,5.77,3.94.02,1.08-.28,1.92-.92,2.58-1,1.02-2.8,1.6-5.09,1.62-2.35.02-4.71.03-7.06.03-1.85,0-9.2-.02-11.03-.02-2,0-3.92,0-5.83,0-1.91,0-3.82,0-5.73,0Z"/>
          <path class="cls-1" d="M69.09,80c-1.5,0-3,0-4.5-.02-1.47,0-2.94-.02-4.42-.02h-.11c-1.46,0-2.93,0-4.39.02-1.45,0-2.9.02-4.35.02-2.18,0-3.97-.02-5.64-.06-2.85-.07-4.71-1.62-4.72-3.95-.02-2.41,1.83-4.07,4.59-4.12,5.03-.09,10.04-.14,14.87-.14s9.88.05,14.65.14c1.43.03,2.58.46,3.33,1.24.69.72,1.04,1.75,1.02,2.97-.04,1.74-.62,3.75-4.75,3.85-1.66.04-3.43.06-5.58.06Z"/>
          <path class="cls-1" d="M51.52,112.3c-1.81,0-3.62-.01-5.42-.05-1.21-.03-5.15-.39-5.13-4.01.01-2.43,1.84-4.03,4.65-4.08,5.12-.08,10.1-.12,14.8-.12,5.06,0,10.01.05,14.73.14,1.44.03,2.59.48,3.34,1.29.66.72.97,1.71.9,2.86-.18,2.75-1.38,3.85-4.28,3.9-1.96.04-3.92.05-5.88.05-1.52,0-3.04,0-4.56-.01-1.53,0-3.06-.01-4.58-.01h-3v.03c-.44,0-.87,0-1.31,0-1.43,0-2.85.01-4.28.01Z"/>
          <path class="cls-1" d="M69.18,176.83c-1.58,0-3.15,0-4.73,0-1.48,0-5.16,0-5.16,0h-7.99c-1.95,0-3.9,0-5.85,0-2.83-.01-4.12-1.16-4.46-3.96-.11-.93.18-1.85.82-2.59.79-.91,2.03-1.45,3.39-1.48,5-.1,10.08-.14,15.1-.14s9.97.05,14.93.14c1.39.03,2.52.47,3.26,1.28.67.74.98,1.74.89,2.9-.17,2.28-.98,3.8-4.34,3.85-1.96.02-3.91.03-5.87.03Z"/>
          <path class="cls-1" d="M69.12,144.6c-1.58,0-3.17-.01-4.75-.02-1.49-.01-2.98-.02-4.47-.02,0,0-7.39.01-8.73.01-1.93,0-3.86,0-5.8-.03-2.78-.04-4.09-1.25-4.38-4.03-.12-1.18.39-2.04.84-2.55.81-.91,2.08-1.45,3.49-1.48,5.33-.1,10.27-.14,15.09-.14,5.15,0,10.17.06,14.93.17,2.69.06,3.98,1.36,4.05,4.09.02.94.1,3.8-4.51,3.94-1.71.05-3.54.07-5.76.07Z"/>
          <path class="cls-1" d="M444.72,292.55c-1.08,0-2.17-.01-3.25-.03-1.11-.01-2.22-.03-3.33-.03h-.21c-1.11,0-2.22.01-3.32.03-1.17.01-2.35.03-3.52.03-1.57,0-2.87-.02-4.08-.08-1.57-.07-5.22-.61-5.23-4.15-.02-3.53,3.57-3.96,5.12-3.98,3.8-.05,7.51-.08,11.05-.08,3.75,0,7.44.03,10.97.09,4.71.08,4.8,2.79,4.84,3.81.12,3.5-3.03,4.2-4.92,4.3-1.21.06-2.51.09-4.11.09Z"/>
        </g>
      </g>
      <path class="cls-1" d="M117.41,386.62c-3.33-5.8-7.59-10.79-12.83-14.93-.91-.72-1.84-1.4-2.78-2.11.13-.15.21-.25.31-.35,2.62-2.62,5.25-5.24,7.87-7.87.4-.4.83-.79,1.18-1.23.96-1.23.33-2.99-1.19-3.31-.89-.19-1.56.21-2.17.82-3.05,3.08-6.12,6.14-9.15,9.22-.4.41-.69.47-1.23.21-12.09-5.79-24.06-5.49-35.78,1-7.96,4.4-13.76,11.01-18.31,18.78-.47.81-.38,1.59.08,2.38,2.54,4.45,5.61,8.5,9.38,11.97,1.96,1.81,4.07,3.47,6.26,5.32-.2.16-.46.33-.67.54-2.78,2.78-5.54,5.56-8.32,8.34-.61.61-.98,1.3-.74,2.19.43,1.63,2.31,2.1,3.59.85,2.3-2.25,4.58-4.54,6.86-6.81,1.01-1.01,2.01-2.04,3.01-3.05.28.13.47.23.67.32,12.63,5.97,24.99,5.41,36.97-1.73,7.38-4.4,12.82-10.73,17.12-18.08.49-.84.35-1.64-.12-2.45ZM61.92,403.33c-1.87-1.51-3.88-3.01-5.75-4.68-3.3-2.93-6.05-6.34-8.31-10.13-.15-.26-.21-.76-.07-.99,4.34-7,9.84-12.85,17.28-16.6,9.5-4.79,19.19-5.05,28.98-.85.27.12.53.25.77.37-1.93,1.93-3.85,3.83-5.77,5.75-6.63-4.7-14.71-2.94-19.14,1.71-4.41,4.62-5.72,12.37-1.23,18.69-2.21,2.2-4.41,4.39-6.76,6.74ZM89.11,382.4c2.34,3.05,2.6,8.79-1.15,12.73-3.8,3.98-9.67,4.03-13.11,1.53,4.75-4.75,9.51-9.5,14.26-14.25ZM71.69,393.52c-2.65-3.72-2.1-9.37,1.3-12.82,3.51-3.56,9.12-4.17,13-1.48l-14.3,14.3ZM113.05,388.4c-4.39,7.07-9.96,12.96-17.5,16.7-9.42,4.67-19.01,4.91-28.69.76-.29-.12-.57-.27-.82-.39,1.93-1.93,3.84-3.84,5.76-5.75,6.47,4.58,14.37,3.06,18.91-1.48,4.55-4.56,6.04-12.46,1.46-18.91,2.2-2.21,4.4-4.4,6.75-6.76,1.95,1.59,4.02,3.15,5.95,4.87,3.22,2.89,5.91,6.25,8.12,9.97.15.26.2.76.06.99Z"/>
    </g>
  </g>
</svg>